<?xml version="1.0" encoding="UTF-8" standalone="no"?>
<!-- Created with Inkscape (http://www.inkscape.org/) -->

<svg
   xmlns:dc="http://purl.org/dc/elements/1.1/"
   xmlns:cc="http://creativecommons.org/ns#"
   xmlns:rdf="http://www.w3.org/1999/02/22-rdf-syntax-ns#"
   xmlns:svg="http://www.w3.org/2000/svg"
   xmlns="http://www.w3.org/2000/svg"
   xmlns:sodipodi="http://sodipodi.sourceforge.net/DTD/sodipodi-0.dtd"
   xmlns:inkscape="http://www.inkscape.org/namespaces/inkscape"
   width="993.84772"
   height="2083.1707"
   viewBox="0 0 262.95554 551.17225"
   version="1.1"
   id="svg8"
   inkscape:version="0.92.0 unknown"
   sodipodi:docname="instructions.svg">
  <defs
     id="defs2" />
  <sodipodi:namedview
     id="base"
     pagecolor="#ffffff"
     bordercolor="#666666"
     borderopacity="1.0"
     inkscape:pageopacity="0.0"
     inkscape:pageshadow="2"
     inkscape:zoom="0.26878504"
     inkscape:cx="-49.532281"
     inkscape:cy="1080.069"
     inkscape:document-units="mm"
     inkscape:current-layer="layer1"
     showgrid="false"
     units="px"
     fit-margin-top="0"
     fit-margin-left="0"
     fit-margin-right="0"
     fit-margin-bottom="0"
     inkscape:snap-global="false"
     inkscape:window-width="1851"
     inkscape:window-height="1053"
     inkscape:window-x="69"
     inkscape:window-y="27"
     inkscape:window-maximized="1" />
  <metadata
     id="metadata5">
    <rdf:RDF>
      <cc:Work
         rdf:about="">
        <dc:format>image/svg+xml</dc:format>
        <dc:type
           rdf:resource="http://purl.org/dc/dcmitype/StillImage" />
        <dc:title></dc:title>
      </cc:Work>
    </rdf:RDF>
  </metadata>
  <g
     inkscape:label="Capa 1"
     inkscape:groupmode="layer"
     id="layer1"
     transform="translate(5.536109,148.97781)">
    <path
       id="shape0"
       d="m 132.67265,-103.70514 0.0282,199.25362 c 8.74546,10.61334 106.715,12.4345 117.82529,-0.57333 l -0.35622,-198.10735 c -10.99262,-13.86538 -109.40979,-13.52263 -117.49727,-0.57294 z"
       inkscape:connector-curvature="0"
       style="fill:#a8b2b8;fill-rule:evenodd;stroke:#003bc3;stroke-width:0;stroke-linecap:square;stroke-linejoin:bevel" />
    <path
       id="shape01"
       d="m 132.63467,-101.3931 0.0282,195.315345 c 8.75111,10.403115 106.78398,12.188875 117.90069,-0.562087 l -0.35622,-194.191678 c -10.99958,-13.59131 -109.48002,-13.25534 -117.57269,-0.56158 z"
       inkscape:connector-curvature="0"
       style="fill:#34495e;fill-rule:evenodd;stroke:#003bc3;stroke-width:0;stroke-linecap:square;stroke-linejoin:bevel" />
    <path
       id="shape11"
       d="m 134.91107,59.321087 v 15.409184 l 113.15681,-0.311284 0.0738,-14.786603 z"
       inkscape:connector-curvature="0"
       style="fill:#001424;fill-rule:evenodd;stroke:#003bc3;stroke-width:0;stroke-linecap:square;stroke-linejoin:bevel" />
    <path
       id="shape12"
       d="m 134.87898,-89.344301 v 6.867981 l 112.85247,-0.05295 0.0738,-6.565439 z"
       inkscape:connector-curvature="0"
       style="fill:#001424;fill-rule:evenodd;stroke:#003bc3;stroke-width:0;stroke-linecap:square;stroke-linejoin:bevel" />
    <ellipse
       id="circle12"
       cx="236.92995"
       cy="-99.787323"
       stroke-miterlimit="2.01260185242"
       style="fill:#2980b9;fill-rule:evenodd;stroke:#003bc3;stroke-width:0;stroke-linecap:square;stroke-linejoin:miter;stroke-miterlimit:2.01260185"
       rx="2.2742486pt"
       ry="2.3899832pt" />
    <path
       id="path14"
       d="m 177.48234,-110.7164 c 9.52992,-0.29284 19.00757,-0.36589 28.3444,0.15295 l -4.75092,3.82138 -18.88474,-0.0811 z"
       inkscape:connector-curvature="0"
       style="fill:#001424;fill-rule:evenodd;stroke:#003bc3;stroke-width:0;stroke-linecap:square;stroke-linejoin:bevel" />
    <path
       id="path4536"
       d="m 134.94949,21.544746 h 112.7865 v 36.759038 h -112.7865 z"
       style="color:#000000;clip-rule:nonzero;display:inline;overflow:visible;visibility:visible;opacity:1;isolation:auto;mix-blend-mode:normal;color-interpolation:sRGB;color-interpolation-filters:linearRGB;solid-color:#000000;solid-opacity:1;fill:#12baf4;fill-opacity:1;fill-rule:nonzero;stroke:none;stroke-width:0.06235645;stroke-linecap:butt;stroke-linejoin:round;stroke-miterlimit:4;stroke-dasharray:none;stroke-dashoffset:0;stroke-opacity:1;marker:none;color-rendering:auto;image-rendering:auto;shape-rendering:auto;text-rendering:auto;enable-background:accumulate"
       inkscape:connector-curvature="0"
       sodipodi:nodetypes="ccccc" />
    <path
       sodipodi:nodetypes="ccccc"
       inkscape:connector-curvature="0"
       style="color:#000000;clip-rule:nonzero;display:inline;overflow:visible;visibility:visible;opacity:1;isolation:auto;mix-blend-mode:normal;color-interpolation:sRGB;color-interpolation-filters:linearRGB;solid-color:#000000;solid-opacity:1;fill:#12baf4;fill-opacity:1;fill-rule:nonzero;stroke:none;stroke-width:0.06235645;stroke-linecap:butt;stroke-linejoin:round;stroke-miterlimit:4;stroke-dasharray:none;stroke-dashoffset:0;stroke-opacity:1;marker:none;color-rendering:auto;image-rendering:auto;shape-rendering:auto;text-rendering:auto;enable-background:accumulate"
       d="m 134.94949,-81.237467 h 112.7865 v 36.759038 h -112.7865 z"
       id="path4538" />
    <path
       style="color:#000000;clip-rule:nonzero;display:inline;overflow:visible;visibility:visible;opacity:1;isolation:auto;mix-blend-mode:normal;color-interpolation:sRGB;color-interpolation-filters:linearRGB;solid-color:#000000;solid-opacity:1;fill:#00be6b;fill-opacity:1;fill-rule:nonzero;stroke:none;stroke-width:0.06235645;stroke-linecap:butt;stroke-linejoin:round;stroke-miterlimit:4;stroke-dasharray:none;stroke-dashoffset:0;stroke-opacity:1;marker:none;color-rendering:auto;image-rendering:auto;shape-rendering:auto;text-rendering:auto;enable-background:accumulate"
       d="M 134.96001,-43.30042 H 190.5965 V 20.366727 H 134.96001 Z"
       id="rect4533"
       inkscape:connector-curvature="0" />
    <rect
       y="-43.300419"
       x="192.08899"
       height="63.667145"
       width="55.636494"
       id="rect4499"
       style="color:#000000;clip-rule:nonzero;display:inline;overflow:visible;visibility:visible;opacity:1;isolation:auto;mix-blend-mode:normal;color-interpolation:sRGB;color-interpolation-filters:linearRGB;solid-color:#000000;solid-opacity:1;fill:#00be6b;fill-opacity:1;fill-rule:nonzero;stroke:none;stroke-width:0.06235645;stroke-linecap:butt;stroke-linejoin:round;stroke-miterlimit:4;stroke-dasharray:none;stroke-dashoffset:0;stroke-opacity:1;marker:none;color-rendering:auto;image-rendering:auto;shape-rendering:auto;text-rendering:auto;enable-background:accumulate" />
    <path
       transform="matrix(0,0.45,0.45,0,135.43525,-80.999383)"
       sodipodi:type="star"
       style="color:#000000;clip-rule:nonzero;display:inline;overflow:visible;visibility:visible;opacity:1;isolation:auto;mix-blend-mode:normal;color-interpolation:sRGB;color-interpolation-filters:linearRGB;solid-color:#000000;solid-opacity:1;fill:#74787a;fill-opacity:1;fill-rule:nonzero;stroke:none;stroke-width:0.18520832;stroke-linecap:butt;stroke-linejoin:round;stroke-miterlimit:4;stroke-dasharray:none;stroke-dashoffset:0;stroke-opacity:1;marker:none;color-rendering:auto;image-rendering:auto;shape-rendering:auto;text-rendering:auto;enable-background:accumulate"
       id="path4507"
       sodipodi:sides="3"
       sodipodi:cx="-125.94167"
       sodipodi:cy="116.98691"
       sodipodi:r1="29.007793"
       sodipodi:r2="14.503897"
       sodipodi:arg1="1.5707963"
       sodipodi:arg2="2.6179939"
       inkscape:flatsided="true"
       inkscape:rounded="0"
       inkscape:randomized="0"
       d="m -125.94167,145.9947 -25.12149,-43.51169 50.24297,0 z"
       inkscape:transform-center-x="-7.2519355"
       inkscape:transform-center-y="-4.4583072e-06" />
    <path
       inkscape:connector-curvature="0"
       style="fill:#000000;fill-opacity:1;stroke-width:2.73662972"
       d="m 202.68958,-0.18580742 c -0.99613,0 -1.95395,-0.54458291 -2.43833,-1.48872668 -1.2999,-2.5368548 -1.95669,-5.2597969 -1.95669,-8.0894759 0,-2.82967 0.65679,-5.552621 1.95669,-8.089476 0.68689,-1.343686 2.33708,-1.877324 3.6835,-1.1877 1.34642,0.689632 1.87733,2.337088 1.19043,3.683508 -0.90308,1.756917 -1.35736,3.639718 -1.35736,5.593668 0,1.953959 0.45428,3.8367601 1.35463,5.5936772 0.68689,1.3436771 0.15599,2.9938667 -1.19043,3.68349923 -0.39681,0.20524384 -0.82373,0.30102615 -1.24244,0.30102615 z"
       id="path4592" />
    <path
       inkscape:connector-curvature="0"
       style="fill:#000000;fill-opacity:1;stroke-width:2.73662972"
       d="m 238.2603,-0.18580742 c -0.41871,0 -0.84562,-0.0957823 -1.24243,-0.30102615 -1.34643,-0.68688933 -1.88006,-2.33707893 -1.19317,-3.68076513 0.90035,-1.7623944 1.35736,-3.6451955 1.35736,-5.5964113 0,-1.951216 -0.45701,-3.834017 -1.35736,-5.596402 -0.68689,-1.346429 -0.15599,-2.993876 1.19317,-3.680774 1.33547,-0.689624 2.99387,-0.15872 3.6835,1.190434 1.2999,2.539598 1.9567,5.259806 1.9567,8.086742 0,2.8269357 -0.6568,5.5471531 -1.9567,8.0867419 -0.48439,0.94687777 -1.44768,1.49146068 -2.44107,1.49146068 z"
       id="path4590" />
    <path
       inkscape:connector-curvature="0"
       style="fill:#000000;fill-opacity:1;stroke-width:2.73662972"
       d="m 248.12585,68.229939 h -30.18503 c -3.59319,0 -6.96199,-1.765128 -9.00899,-4.720682 L 187.79411,32.984888 c -1.00161,-1.450414 -1.52704,-3.144394 -1.52704,-4.901311 0,-3.289425 1.82807,-6.244988 4.76994,-7.717292 2.3234,-1.160333 5.11477,-0.831939 7.09882,0.842884 l 10.30889,8.669638 c 0.48438,0.421442 1.11654,0.500811 1.64745,0.235355 0.49533,-0.249034 0.80457,-0.747102 0.80457,-1.302639 V -9.76401 c 0,-5.281697 4.2965,-9.578202 9.5782,-9.578202 5.2817,0 9.5782,4.296505 9.5782,9.578202 v 22.629192 c 0,0.65132 0.46524,1.220537 1.1056,1.349164 l 19.21388,3.842228 c 4.08306,0.812773 7.04682,4.427867 7.04682,8.593012 l -0.052,1.379265 -2.42192,33.846639 c -0.24903,3.563093 -3.24837,6.354449 -6.81968,6.354449 z"
       id="path4588" />
    <path
       inkscape:connector-curvature="0"
       style="fill:#ffffff;fill-opacity:1;stroke-width:2.73662972"
       d="m 193.94605,25.152648 -0.46249,0.109471 c -1.07549,0.539115 -1.74323,1.620078 -1.74323,2.821458 0,0.643109 0.19156,1.261592 0.55827,1.789762 l 21.13499,30.518893 c 1.02076,1.483258 2.70653,2.364446 4.5045,2.364446 h 30.18503 c 0.71425,0 1.31357,-0.555537 1.36557,-1.269794 l 2.42192,-33.857585 0.0356,-0.979713 c 0,-1.565353 -1.11107,-2.922718 -2.64632,-3.229222 l -19.21388,-3.842228 c -3.1909,-0.637631 -5.5061,-3.461833 -5.5061,-6.712954 V -9.76401 c 0,-2.263187 -1.84175,-4.104941 -4.10494,-4.104941 -2.2632,0 -4.10494,1.841754 -4.10494,4.104941 v 38.575533 c 0,2.643582 -1.46957,5.018983 -3.83129,6.201206 -2.52591,1.256115 -5.52525,0.872986 -7.64887,-0.968768 l -10.27605,-8.645013 c -0.19431,-0.161463 -0.42965,-0.2463 -0.66774,-0.2463 z"
       id="path4559" />
    <path
       inkscape:transform-center-y="-8.4583074e-06"
       inkscape:transform-center-x="7.2519395"
       d="m -125.94167,145.9947 -25.12149,-43.51169 50.24297,0 z"
       inkscape:randomized="0"
       inkscape:rounded="0"
       inkscape:flatsided="true"
       sodipodi:arg2="2.6179939"
       sodipodi:arg1="1.5707963"
       sodipodi:r2="14.503897"
       sodipodi:r1="29.007793"
       sodipodi:cy="116.98691"
       sodipodi:cx="-125.94167"
       sodipodi:sides="3"
       id="path4509"
       style="color:#000000;clip-rule:nonzero;display:inline;overflow:visible;visibility:visible;opacity:1;isolation:auto;mix-blend-mode:normal;color-interpolation:sRGB;color-interpolation-filters:linearRGB;solid-color:#000000;solid-opacity:1;fill:#74787a;fill-opacity:1;fill-rule:nonzero;stroke:none;stroke-width:0.18520832;stroke-linecap:butt;stroke-linejoin:round;stroke-miterlimit:4;stroke-dasharray:none;stroke-dashoffset:0;stroke-opacity:1;marker:none;color-rendering:auto;image-rendering:auto;shape-rendering:auto;text-rendering:auto;enable-background:accumulate"
       sodipodi:type="star"
       transform="matrix(0,0.45,-0.45,0,118.66265,-80.999234)" />
    <path
       style="fill:#a8b2b8;fill-rule:evenodd;stroke:#003bc3;stroke-width:0;stroke-linecap:square;stroke-linejoin:bevel"
       inkscape:connector-curvature="0"
       d="M 0.40075567,-105.49707 0.42895432,93.75655 C 9.1744201,104.36989 107.14396,106.19105 118.25425,93.18322 l -0.35622,-198.10735 C 106.90541,-118.78951 8.4882371,-118.44676 0.40075567,-105.49707 Z"
       id="path4619" />
    <path
       style="fill:#34495e;fill-rule:evenodd;stroke:#003bc3;stroke-width:0;stroke-linecap:square;stroke-linejoin:bevel"
       inkscape:connector-curvature="0"
       d="M 0.36277999,-103.18503 0.39099677,92.130315 C 9.142114,102.53343 107.17498,104.31919 118.29169,91.568228 L 117.93547,-102.62345 C 106.93589,-116.21476 8.4554496,-115.87879 0.36277999,-103.18503 Z"
       id="path4621" />
    <path
       style="fill:#001424;fill-rule:evenodd;stroke:#003bc3;stroke-width:0;stroke-linecap:square;stroke-linejoin:bevel"
       inkscape:connector-curvature="0"
       d="M 2.639181,57.529157 V 72.938341 L 115.79599,72.627057 115.8698,57.840454 Z"
       id="path4623" />
    <path
       style="fill:#001424;fill-rule:evenodd;stroke:#003bc3;stroke-width:0;stroke-linecap:square;stroke-linejoin:bevel"
       inkscape:connector-curvature="0"
       d="m 2.6070888,-91.136231 v 6.867981 l 112.8524712,-0.05295 0.0738,-6.565439 z"
       id="path4625" />
    <ellipse
       style="fill:#2980b9;fill-rule:evenodd;stroke:#003bc3;stroke-width:0;stroke-linecap:square;stroke-linejoin:miter;stroke-miterlimit:2.01260185"
       stroke-miterlimit="2.01260185242"
       cy="-101.57925"
       cx="104.65805"
       id="circle4627"
       rx="2.2742486pt"
       ry="2.3899832pt" />
    <path
       style="fill:#001424;fill-rule:evenodd;stroke:#003bc3;stroke-width:0;stroke-linecap:square;stroke-linejoin:bevel"
       inkscape:connector-curvature="0"
       d="m 45.210447,-112.50833 c 9.529915,-0.29284 19.007574,-0.36589 28.344401,0.15295 l -4.750917,3.82138 -18.884746,-0.0811 z"
       id="path4629" />
    <path
       sodipodi:nodetypes="ccccc"
       inkscape:connector-curvature="0"
       style="color:#000000;clip-rule:nonzero;display:inline;overflow:visible;visibility:visible;opacity:1;isolation:auto;mix-blend-mode:normal;color-interpolation:sRGB;color-interpolation-filters:linearRGB;solid-color:#000000;solid-opacity:1;fill:#12baf4;fill-opacity:1;fill-rule:nonzero;stroke:none;stroke-width:0.06235645;stroke-linecap:butt;stroke-linejoin:round;stroke-miterlimit:4;stroke-dasharray:none;stroke-dashoffset:0;stroke-opacity:1;marker:none;color-rendering:auto;image-rendering:auto;shape-rendering:auto;text-rendering:auto;enable-background:accumulate"
       d="M 2.6775961,19.752819 H 115.4641 V 56.511857 H 2.6775961 Z"
       id="path4633" />
    <path
       id="path4635"
       d="M 2.6775989,-83.029391 H 115.46409 v 36.759038 H 2.6775989 Z"
       style="color:#000000;clip-rule:nonzero;display:inline;overflow:visible;visibility:visible;opacity:1;isolation:auto;mix-blend-mode:normal;color-interpolation:sRGB;color-interpolation-filters:linearRGB;solid-color:#000000;solid-opacity:1;fill:#12baf4;fill-opacity:1;fill-rule:nonzero;stroke:none;stroke-width:0.06235645;stroke-linecap:butt;stroke-linejoin:round;stroke-miterlimit:4;stroke-dasharray:none;stroke-dashoffset:0;stroke-opacity:1;marker:none;color-rendering:auto;image-rendering:auto;shape-rendering:auto;text-rendering:auto;enable-background:accumulate"
       inkscape:connector-curvature="0"
       sodipodi:nodetypes="ccccc" />
    <path
       inkscape:connector-curvature="0"
       id="path4637"
       d="M 2.6881136,-45.092344 H 58.32461 V 18.5748 H 2.6881136 Z"
       style="color:#000000;clip-rule:nonzero;display:inline;overflow:visible;visibility:visible;opacity:1;isolation:auto;mix-blend-mode:normal;color-interpolation:sRGB;color-interpolation-filters:linearRGB;solid-color:#000000;solid-opacity:1;fill:#00be6b;fill-opacity:1;fill-rule:nonzero;stroke:none;stroke-width:0.06235645;stroke-linecap:butt;stroke-linejoin:round;stroke-miterlimit:4;stroke-dasharray:none;stroke-dashoffset:0;stroke-opacity:1;marker:none;color-rendering:auto;image-rendering:auto;shape-rendering:auto;text-rendering:auto;enable-background:accumulate" />
    <rect
       style="color:#000000;clip-rule:nonzero;display:inline;overflow:visible;visibility:visible;opacity:1;isolation:auto;mix-blend-mode:normal;color-interpolation:sRGB;color-interpolation-filters:linearRGB;solid-color:#000000;solid-opacity:1;fill:#00be6b;fill-opacity:1;fill-rule:nonzero;stroke:none;stroke-width:0.06235645;stroke-linecap:butt;stroke-linejoin:round;stroke-miterlimit:4;stroke-dasharray:none;stroke-dashoffset:0;stroke-opacity:1;marker:none;color-rendering:auto;image-rendering:auto;shape-rendering:auto;text-rendering:auto;enable-background:accumulate"
       id="rect4639"
       width="55.636494"
       height="63.667145"
       x="59.817089"
       y="-45.092342" />
    <path
       id="path4643"
       d="m 10.8864,-1.9777374 c -0.9961264,0 -1.9539494,-0.5445829 -2.4383289,-1.4887267 -1.2999053,-2.5368548 -1.956693,-5.2597969 -1.956693,-8.0894759 0,-2.82967 0.6567877,-5.552621 1.956693,-8.089476 0.6868894,-1.343686 2.3370789,-1.877324 3.6834989,-1.1877 1.346421,0.689632 1.877333,2.337088 1.190435,3.683508 -0.903088,1.756917 -1.357366,3.639718 -1.357366,5.593668 0,1.953959 0.454278,3.8367601 1.354632,5.5936772 0.686889,1.3436771 0.155986,2.9938667 -1.190435,3.6834992 -0.396808,0.2052439 -0.823728,0.3010262 -1.242436,0.3010262 z"
       style="fill:#000000;fill-opacity:1;stroke-width:2.73662972"
       inkscape:connector-curvature="0" />
    <path
       id="path4645"
       d="m 46.457121,-1.9777374 c -0.418708,0 -0.845618,-0.095782 -1.242436,-0.3010262 -1.34642,-0.6868893 -1.880058,-2.3370789 -1.193168,-3.6807651 0.900353,-1.7623944 1.357365,-3.6451955 1.357365,-5.5964113 0,-1.951216 -0.457012,-3.834017 -1.357365,-5.596402 -0.68689,-1.346429 -0.155986,-2.993876 1.193168,-3.680774 1.335475,-0.689624 2.993876,-0.15872 3.683509,1.190434 1.299896,2.539598 1.956692,5.259806 1.956692,8.086742 0,2.8269357 -0.656796,5.5471531 -1.956692,8.0867419 -0.484389,0.9468778 -1.44768,1.4914607 -2.441073,1.4914607 z"
       style="fill:#000000;fill-opacity:1;stroke-width:2.73662972"
       inkscape:connector-curvature="0" />
    <path
       id="path4647"
       d="M 56.32267,66.438009 H 26.13764 c -3.593194,0 -6.961988,-1.765128 -9.008986,-4.720682 L -4.0090685,31.192958 c -1.0016131,-1.450414 -1.5270396,-3.144394 -1.5270396,-4.901311 0,-3.289425 1.8280658,-6.244988 4.7699402,-7.717292 2.3233997,-1.160333 5.1147657,-0.831939 7.0988171,0.842884 L 16.64154,28.086877 c 0.48438,0.421442 1.116543,0.500811 1.647447,0.235355 0.495334,-0.249034 0.804571,-0.747102 0.804571,-1.302639 V -11.55594 c 0,-5.281697 4.296506,-9.578202 9.578203,-9.578202 5.281696,0 9.578202,4.296505 9.578202,9.578202 v 22.629192 c 0,0.65132 0.465233,1.220537 1.105598,1.349164 l 19.213883,3.842228 c 4.083051,0.812773 7.046816,4.427867 7.046816,8.593012 l -0.05201,1.379265 -2.421916,33.846639 c -0.249034,3.563093 -3.248378,6.354449 -6.819682,6.354449 z"
       style="fill:#000000;fill-opacity:1;stroke-width:2.73662972"
       inkscape:connector-curvature="0" />
    <path
       id="path4649"
       d="m 2.1428709,23.360718 -0.4624891,0.109471 c -1.07549578,0.539115 -1.74322868,1.620078 -1.74322868,2.821458 0,0.643109 0.1915554,1.261592 0.55827136,1.789762 L 21.630413,58.600302 c 1.02076,1.483258 2.706529,2.364446 4.504493,2.364446 h 30.18503 c 0.714258,0 1.313576,-0.555537 1.365577,-1.269794 l 2.421916,-33.857585 0.03562,-0.979713 c 0,-1.565353 -1.111075,-2.922718 -2.646325,-3.229222 L 38.282854,17.786206 C 35.091946,17.148575 32.776748,14.324373 32.776748,11.073252 V -11.55594 c 0,-2.263187 -1.841745,-4.104941 -4.104941,-4.104941 -2.263197,0 -4.104942,1.841754 -4.104942,4.104941 v 38.575533 c 0,2.643582 -1.46957,5.018983 -3.831282,6.201206 -2.52591,1.256115 -5.525254,0.872986 -7.648878,-0.968768 L 2.810659,23.607018 c -0.1943078,-0.161463 -0.4296534,-0.2463 -0.6677421,-0.2463 z"
       style="fill:#ffffff;fill-opacity:1;stroke-width:2.73662972"
       inkscape:connector-curvature="0" />
    <path
       sodipodi:type="star"
       style="color:#000000;clip-rule:nonzero;display:inline;overflow:visible;visibility:visible;opacity:1;isolation:auto;mix-blend-mode:normal;color-interpolation:sRGB;color-interpolation-filters:linearRGB;solid-color:#000000;solid-opacity:1;fill:#74787a;fill-opacity:1;fill-rule:nonzero;stroke:none;stroke-width:0.08334374;stroke-linecap:butt;stroke-linejoin:round;stroke-miterlimit:4;stroke-dasharray:none;stroke-dashoffset:0;stroke-opacity:1;marker:none;color-rendering:auto;image-rendering:auto;shape-rendering:auto;text-rendering:auto;enable-background:accumulate"
       id="path4503"
       sodipodi:sides="3"
       sodipodi:cx="188.96152"
       sodipodi:cy="142.43245"
       sodipodi:r1="13.053507"
       sodipodi:r2="6.5267534"
       sodipodi:arg1="1.5707963"
       sodipodi:arg2="2.6179939"
       inkscape:flatsided="true"
       inkscape:rounded="0"
       inkscape:randomized="0"
       d="m 188.96152,155.48596 -11.30467,-19.58026 22.60934,0 z"
       inkscape:transform-center-x="-1.0700883e-06"
       inkscape:transform-center-y="7.2519485" />
    <path
       id="path4690"
       d="m 132.98448,177.87184 0.0282,199.25362 c 8.74546,10.61334 106.715,12.4345 117.82529,-0.57333 L 250.48175,178.44478 C 239.48913,164.5794 141.07196,164.92215 132.98448,177.87184 Z"
       inkscape:connector-curvature="0"
       style="fill:#a8b2b8;fill-rule:evenodd;stroke:#003bc3;stroke-width:0;stroke-linecap:square;stroke-linejoin:bevel" />
    <path
       id="path4692"
       d="m 132.9465,180.18388 0.0282,195.31535 c 8.75111,10.40311 106.78398,12.18887 117.90069,-0.56209 l -0.3562,-194.19168 C 239.51961,167.15415 141.03917,167.49012 132.9465,180.18388 Z"
       inkscape:connector-curvature="0"
       style="fill:#34495e;fill-rule:evenodd;stroke:#003bc3;stroke-width:0;stroke-linecap:square;stroke-linejoin:bevel" />
    <path
       id="path4694"
       d="m 135.2229,340.89807 v 15.40918 l 113.15681,-0.31128 0.0738,-14.7866 z"
       inkscape:connector-curvature="0"
       style="fill:#001424;fill-rule:evenodd;stroke:#003bc3;stroke-width:0;stroke-linecap:square;stroke-linejoin:bevel" />
    <path
       id="path4696"
       d="m 135.19081,192.23268 v 6.86798 l 112.85247,-0.053 0.0738,-6.56544 z"
       inkscape:connector-curvature="0"
       style="fill:#001424;fill-rule:evenodd;stroke:#003bc3;stroke-width:0;stroke-linecap:square;stroke-linejoin:bevel" />
    <ellipse
       id="circle4698"
       cx="237.24178"
       cy="181.78966"
       stroke-miterlimit="2.01260185242"
       style="fill:#2980b9;fill-rule:evenodd;stroke:#003bc3;stroke-width:0;stroke-linecap:square;stroke-linejoin:miter;stroke-miterlimit:2.01260185"
       rx="2.2742486pt"
       ry="2.3899832pt" />
    <path
       id="path4700"
       d="m 177.79417,170.86058 c 9.52992,-0.29284 19.00757,-0.36589 28.3444,0.15295 l -4.75092,3.82138 -18.88474,-0.0811 z"
       inkscape:connector-curvature="0"
       style="fill:#001424;fill-rule:evenodd;stroke:#003bc3;stroke-width:0;stroke-linecap:square;stroke-linejoin:bevel" />
    <path
       id="path4704"
       d="m 135.26132,303.12173 h 112.7865 v 36.75904 h -112.7865 z"
       style="color:#000000;clip-rule:nonzero;display:inline;overflow:visible;visibility:visible;opacity:1;isolation:auto;mix-blend-mode:normal;color-interpolation:sRGB;color-interpolation-filters:linearRGB;solid-color:#000000;solid-opacity:1;fill:#12baf4;fill-opacity:1;fill-rule:nonzero;stroke:none;stroke-width:0.06235645;stroke-linecap:butt;stroke-linejoin:round;stroke-miterlimit:4;stroke-dasharray:none;stroke-dashoffset:0;stroke-opacity:1;marker:none;color-rendering:auto;image-rendering:auto;shape-rendering:auto;text-rendering:auto;enable-background:accumulate"
       inkscape:connector-curvature="0"
       sodipodi:nodetypes="ccccc" />
    <path
       sodipodi:nodetypes="ccccc"
       inkscape:connector-curvature="0"
       style="color:#000000;clip-rule:nonzero;display:inline;overflow:visible;visibility:visible;opacity:1;isolation:auto;mix-blend-mode:normal;color-interpolation:sRGB;color-interpolation-filters:linearRGB;solid-color:#000000;solid-opacity:1;fill:#12baf4;fill-opacity:1;fill-rule:nonzero;stroke:none;stroke-width:0.06235645;stroke-linecap:butt;stroke-linejoin:round;stroke-miterlimit:4;stroke-dasharray:none;stroke-dashoffset:0;stroke-opacity:1;marker:none;color-rendering:auto;image-rendering:auto;shape-rendering:auto;text-rendering:auto;enable-background:accumulate"
       d="m 135.26132,200.33952 h 112.78649 v 36.75904 H 135.26132 Z"
       id="path4706" />
    <path
       style="color:#000000;clip-rule:nonzero;display:inline;overflow:visible;visibility:visible;opacity:1;isolation:auto;mix-blend-mode:normal;color-interpolation:sRGB;color-interpolation-filters:linearRGB;solid-color:#000000;solid-opacity:1;fill:#00be6b;fill-opacity:1;fill-rule:nonzero;stroke:none;stroke-width:0.06235645;stroke-linecap:butt;stroke-linejoin:round;stroke-miterlimit:4;stroke-dasharray:none;stroke-dashoffset:0;stroke-opacity:1;marker:none;color-rendering:auto;image-rendering:auto;shape-rendering:auto;text-rendering:auto;enable-background:accumulate"
       d="m 135.27183,238.27657 h 55.6365 v 63.66714 h -55.6365 z"
       id="path4708"
       inkscape:connector-curvature="0" />
    <rect
       y="238.27657"
       x="192.4008"
       height="63.667145"
       width="55.636494"
       id="rect4710"
       style="color:#000000;clip-rule:nonzero;display:inline;overflow:visible;visibility:visible;opacity:1;isolation:auto;mix-blend-mode:normal;color-interpolation:sRGB;color-interpolation-filters:linearRGB;solid-color:#000000;solid-opacity:1;fill:#00be6b;fill-opacity:1;fill-rule:nonzero;stroke:none;stroke-width:0.06235645;stroke-linecap:butt;stroke-linejoin:round;stroke-miterlimit:4;stroke-dasharray:none;stroke-dashoffset:0;stroke-opacity:1;marker:none;color-rendering:auto;image-rendering:auto;shape-rendering:auto;text-rendering:auto;enable-background:accumulate" />
    <path
       inkscape:connector-curvature="0"
       style="fill:#000000;fill-opacity:1;stroke-width:2.73662972"
       d="m 169.80783,333.77869 c -0.99613,0 -1.95395,-0.54458 -2.43833,-1.48872 -1.2999,-2.53686 -1.95669,-5.2598 -1.95669,-8.08948 0,-2.82967 0.65679,-5.55262 1.95669,-8.08948 0.68689,-1.34368 2.33708,-1.87732 3.6835,-1.1877 1.34642,0.68964 1.87733,2.33709 1.19043,3.68351 -0.90308,1.75692 -1.35736,3.63972 -1.35736,5.59367 0,1.95396 0.45428,3.83676 1.35463,5.59368 0.68689,1.34367 0.15599,2.99386 -1.19043,3.6835 -0.39681,0.20524 -0.82373,0.30102 -1.24244,0.30102 z"
       id="path4712" />
    <path
       inkscape:connector-curvature="0"
       style="fill:#000000;fill-opacity:1;stroke-width:2.73662972"
       d="m 205.37855,333.77869 c -0.41871,0 -0.84562,-0.0958 -1.24243,-0.30102 -1.34643,-0.68689 -1.88006,-2.33708 -1.19317,-3.68077 0.90035,-1.76239 1.35736,-3.64519 1.35736,-5.59641 0,-1.95122 -0.45701,-3.83402 -1.35736,-5.5964 -0.68689,-1.34643 -0.15599,-2.99388 1.19317,-3.68078 1.33547,-0.68962 2.99387,-0.15872 3.6835,1.19044 1.2999,2.5396 1.9567,5.2598 1.9567,8.08674 0,2.82694 -0.6568,5.54715 -1.9567,8.08674 -0.48439,0.94688 -1.44768,1.49146 -2.44107,1.49146 z"
       id="path4714" />
    <path
       inkscape:connector-curvature="0"
       style="fill:#000000;fill-opacity:1;stroke-width:2.73662972"
       d="m 215.2441,402.19444 h -30.18503 c -3.59319,0 -6.96199,-1.76513 -9.00899,-4.72068 l -21.13772,-30.52437 c -1.00161,-1.45042 -1.52704,-3.1444 -1.52704,-4.90131 0,-3.28943 1.82807,-6.24499 4.76994,-7.71729 2.3234,-1.16034 5.11477,-0.83194 7.09882,0.84288 l 10.30889,8.66964 c 0.48438,0.42144 1.11654,0.50081 1.64745,0.23535 0.49533,-0.24903 0.80457,-0.7471 0.80457,-1.30264 v -38.57553 c 0,-5.2817 4.2965,-9.5782 9.5782,-9.5782 5.2817,0 9.5782,4.2965 9.5782,9.5782 v 22.62919 c 0,0.65132 0.46524,1.22054 1.1056,1.34917 l 19.21388,3.84222 c 4.08306,0.81278 7.04682,4.42787 7.04682,8.59302 l -0.052,1.37926 -2.42192,33.84664 c -0.24903,3.56309 -3.24837,6.35445 -6.81968,6.35445 z"
       id="path4716" />
    <path
       inkscape:connector-curvature="0"
       style="fill:#ffffff;fill-opacity:1;stroke-width:2.73662972"
       d="m 161.0643,359.11715 -0.46249,0.10947 c -1.07549,0.53911 -1.74323,1.62008 -1.74323,2.82146 0,0.64311 0.19156,1.26159 0.55827,1.78976 l 21.13499,30.51889 c 1.02076,1.48326 2.70653,2.36445 4.5045,2.36445 h 30.18503 c 0.71425,0 1.31357,-0.55554 1.36557,-1.2698 l 2.42192,-33.85758 0.0356,-0.97971 c 0,-1.56536 -1.11107,-2.92272 -2.64632,-3.22923 l -19.21388,-3.84222 c -3.1909,-0.63763 -5.5061,-3.46184 -5.5061,-6.71296 v -22.62919 c 0,-2.26319 -1.84175,-4.10494 -4.10494,-4.10494 -2.2632,0 -4.10494,1.84175 -4.10494,4.10494 v 38.57553 c 0,2.64358 -1.46957,5.01899 -3.83129,6.20121 -2.52591,1.25611 -5.52525,0.87299 -7.64887,-0.96877 l -10.27605,-8.64501 c -0.19431,-0.16147 -0.42965,-0.2463 -0.66774,-0.2463 z"
       id="path4718" />
    <path
       inkscape:transform-center-y="-7.2519383"
       inkscape:transform-center-x="-1.0700883e-06"
       d="m 60.373925,-135.90569 -11.304669,-19.58026 22.609337,0 z"
       inkscape:randomized="0"
       inkscape:rounded="0"
       inkscape:flatsided="true"
       sodipodi:arg2="2.6179939"
       sodipodi:arg1="1.5707963"
       sodipodi:r2="6.5267534"
       sodipodi:r1="13.053507"
       sodipodi:cy="-148.9592"
       sodipodi:cx="60.373924"
       sodipodi:sides="3"
       id="path4505"
       style="color:#000000;clip-rule:nonzero;display:inline;overflow:visible;visibility:visible;opacity:1;isolation:auto;mix-blend-mode:normal;color-interpolation:sRGB;color-interpolation-filters:linearRGB;solid-color:#000000;solid-opacity:1;fill:#74787a;fill-opacity:1;fill-rule:nonzero;stroke:none;stroke-width:0.08334374;stroke-linecap:butt;stroke-linejoin:round;stroke-miterlimit:4;stroke-dasharray:none;stroke-dashoffset:0;stroke-opacity:1;marker:none;color-rendering:auto;image-rendering:auto;shape-rendering:auto;text-rendering:auto;enable-background:accumulate"
       sodipodi:type="star"
       transform="scale(1,-1)" />
    <path
       style="fill:#a8b2b8;fill-rule:evenodd;stroke:#003bc3;stroke-width:0;stroke-linecap:square;stroke-linejoin:bevel"
       inkscape:connector-curvature="0"
       d="m 1.4474427,177.87184 0.028199,199.25362 C 10.221107,387.7388 108.19064,389.55996 119.30094,376.55213 L 118.94471,178.44478 C 107.95209,164.5794 9.5349241,164.92215 1.4474427,177.87184 Z"
       id="path4744" />
    <path
       style="fill:#34495e;fill-rule:evenodd;stroke:#003bc3;stroke-width:0;stroke-linecap:square;stroke-linejoin:bevel"
       inkscape:connector-curvature="0"
       d="m 1.409467,180.18388 0.028217,195.31535 c 8.751117,10.40311 106.783986,12.18887 117.900696,-0.56209 L 118.98215,180.74546 C 107.98258,167.15415 9.5021366,167.49012 1.409467,180.18388 Z"
       id="path4746" />
    <path
       style="fill:#001424;fill-rule:evenodd;stroke:#003bc3;stroke-width:0;stroke-linecap:square;stroke-linejoin:bevel"
       inkscape:connector-curvature="0"
       d="m 3.685868,340.89807 v 15.40918 l 113.156812,-0.31128 0.0738,-14.7866 z"
       id="path4748" />
    <path
       style="fill:#001424;fill-rule:evenodd;stroke:#003bc3;stroke-width:0;stroke-linecap:square;stroke-linejoin:bevel"
       inkscape:connector-curvature="0"
       d="m 3.6537758,192.23268 v 6.86798 l 112.8524742,-0.053 0.0738,-6.56544 z"
       id="path4750" />
    <ellipse
       style="fill:#2980b9;fill-rule:evenodd;stroke:#003bc3;stroke-width:0;stroke-linecap:square;stroke-linejoin:miter;stroke-miterlimit:2.01260185"
       stroke-miterlimit="2.01260185242"
       cy="181.78966"
       cx="105.70473"
       id="circle4752"
       rx="2.2742486pt"
       ry="2.3899832pt" />
    <path
       style="fill:#001424;fill-rule:evenodd;stroke:#003bc3;stroke-width:0;stroke-linecap:square;stroke-linejoin:bevel"
       inkscape:connector-curvature="0"
       d="m 46.257134,170.86058 c 9.529915,-0.29284 19.007574,-0.36589 28.344401,0.15295 l -4.750917,3.82138 -18.884746,-0.0811 z"
       id="path4754" />
    <path
       sodipodi:nodetypes="ccccc"
       inkscape:connector-curvature="0"
       style="color:#000000;clip-rule:nonzero;display:inline;overflow:visible;visibility:visible;opacity:1;isolation:auto;mix-blend-mode:normal;color-interpolation:sRGB;color-interpolation-filters:linearRGB;solid-color:#000000;solid-opacity:1;fill:#12baf4;fill-opacity:1;fill-rule:nonzero;stroke:none;stroke-width:0.06235645;stroke-linecap:butt;stroke-linejoin:round;stroke-miterlimit:4;stroke-dasharray:none;stroke-dashoffset:0;stroke-opacity:1;marker:none;color-rendering:auto;image-rendering:auto;shape-rendering:auto;text-rendering:auto;enable-background:accumulate"
       d="M 3.7242834,303.12173 H 116.51079 v 36.75904 H 3.7242834 Z"
       id="path4758" />
    <path
       id="path4760"
       d="M 3.7242862,200.33952 H 116.51078 v 36.75904 H 3.7242862 Z"
       style="color:#000000;clip-rule:nonzero;display:inline;overflow:visible;visibility:visible;opacity:1;isolation:auto;mix-blend-mode:normal;color-interpolation:sRGB;color-interpolation-filters:linearRGB;solid-color:#000000;solid-opacity:1;fill:#12baf4;fill-opacity:1;fill-rule:nonzero;stroke:none;stroke-width:0.06235645;stroke-linecap:butt;stroke-linejoin:round;stroke-miterlimit:4;stroke-dasharray:none;stroke-dashoffset:0;stroke-opacity:1;marker:none;color-rendering:auto;image-rendering:auto;shape-rendering:auto;text-rendering:auto;enable-background:accumulate"
       inkscape:connector-curvature="0"
       sodipodi:nodetypes="ccccc" />
    <path
       inkscape:connector-curvature="0"
       id="path4762"
       d="M 3.7348009,238.27657 H 59.371297 v 63.66714 H 3.7348009 Z"
       style="color:#000000;clip-rule:nonzero;display:inline;overflow:visible;visibility:visible;opacity:1;isolation:auto;mix-blend-mode:normal;color-interpolation:sRGB;color-interpolation-filters:linearRGB;solid-color:#000000;solid-opacity:1;fill:#00be6b;fill-opacity:1;fill-rule:nonzero;stroke:none;stroke-width:0.06235645;stroke-linecap:butt;stroke-linejoin:round;stroke-miterlimit:4;stroke-dasharray:none;stroke-dashoffset:0;stroke-opacity:1;marker:none;color-rendering:auto;image-rendering:auto;shape-rendering:auto;text-rendering:auto;enable-background:accumulate" />
    <rect
       style="color:#000000;clip-rule:nonzero;display:inline;overflow:visible;visibility:visible;opacity:1;isolation:auto;mix-blend-mode:normal;color-interpolation:sRGB;color-interpolation-filters:linearRGB;solid-color:#000000;solid-opacity:1;fill:#00be6b;fill-opacity:1;fill-rule:nonzero;stroke:none;stroke-width:0.06235645;stroke-linecap:butt;stroke-linejoin:round;stroke-miterlimit:4;stroke-dasharray:none;stroke-dashoffset:0;stroke-opacity:1;marker:none;color-rendering:auto;image-rendering:auto;shape-rendering:auto;text-rendering:auto;enable-background:accumulate"
       id="rect4764"
       width="55.636494"
       height="63.667145"
       x="60.863777"
       y="238.27657" />
    <path
       id="path4766"
       d="m 38.2708,226.62239 c -0.996126,0 -1.953949,-0.54458 -2.438329,-1.48873 -1.299905,-2.53685 -1.956693,-5.25979 -1.956693,-8.08947 0,-2.82967 0.656788,-5.55262 1.956693,-8.08948 0.686889,-1.34368 2.337079,-1.87732 3.683499,-1.1877 1.346421,0.68963 1.877333,2.33709 1.190435,3.68351 -0.903088,1.75692 -1.357366,3.63972 -1.357366,5.59367 0,1.95396 0.454278,3.83676 1.354632,5.59368 0.686889,1.34367 0.155986,2.99386 -1.190435,3.68349 -0.396808,0.20525 -0.823728,0.30103 -1.242436,0.30103 z"
       style="fill:#000000;fill-opacity:1;stroke-width:2.73662972"
       inkscape:connector-curvature="0" />
    <path
       id="path4768"
       d="m 73.841521,226.62239 c -0.418708,0 -0.845618,-0.0958 -1.242436,-0.30103 -1.34642,-0.68688 -1.880058,-2.33707 -1.193168,-3.68076 0.900353,-1.7624 1.357365,-3.6452 1.357365,-5.59641 0,-1.95122 -0.457012,-3.83402 -1.357365,-5.5964 -0.68689,-1.34643 -0.155986,-2.99388 1.193168,-3.68078 1.335475,-0.68962 2.993876,-0.15872 3.683509,1.19044 1.299896,2.53959 1.956692,5.2598 1.956692,8.08674 0,2.82693 -0.656796,5.54715 -1.956692,8.08674 -0.484389,0.94688 -1.44768,1.49146 -2.441073,1.49146 z"
       style="fill:#000000;fill-opacity:1;stroke-width:2.73662972"
       inkscape:connector-curvature="0" />
    <path
       id="path4770"
       d="M 83.70707,295.03814 H 53.52204 c -3.593194,0 -6.961988,-1.76513 -9.008986,-4.72068 L 23.375332,259.79309 c -1.001614,-1.45042 -1.52704,-3.1444 -1.52704,-4.90131 0,-3.28943 1.828066,-6.24499 4.76994,-7.7173 2.3234,-1.16033 5.114766,-0.83194 7.098817,0.84289 l 10.308891,8.66964 c 0.48438,0.42144 1.116543,0.50081 1.647447,0.23535 0.495334,-0.24903 0.804571,-0.7471 0.804571,-1.30264 v -38.57553 c 0,-5.2817 4.296506,-9.5782 9.578203,-9.5782 5.281696,0 9.578202,4.2965 9.578202,9.5782 v 22.62919 c 0,0.65132 0.465233,1.22054 1.105598,1.34916 l 19.213883,3.84223 c 4.083051,0.81278 7.046816,4.42787 7.046816,8.59301 l -0.05201,1.37927 -2.421916,33.84664 c -0.249034,3.56309 -3.248378,6.35445 -6.819682,6.35445 z"
       style="fill:#000000;fill-opacity:1;stroke-width:2.73662972"
       inkscape:connector-curvature="0" />
    <path
       id="path4772"
       d="m 29.527271,251.96085 -0.462489,0.10947 c -1.075496,0.53911 -1.743229,1.62008 -1.743229,2.82146 0,0.6431 0.191556,1.26159 0.558271,1.78976 l 21.134989,30.51889 c 1.02076,1.48326 2.706529,2.36445 4.504493,2.36445 h 30.18503 c 0.714258,0 1.313576,-0.55554 1.365577,-1.2698 l 2.421916,-33.85758 0.03563,-0.97972 c 0,-1.56535 -1.111075,-2.92271 -2.646325,-3.22922 l -19.213875,-3.84223 c -3.190908,-0.63763 -5.506106,-3.46183 -5.506106,-6.71295 v -22.62919 c 0,-2.26319 -1.841745,-4.10494 -4.104941,-4.10494 -2.263197,0 -4.104942,1.84175 -4.104942,4.10494 v 38.57553 c 0,2.64358 -1.46957,5.01898 -3.831282,6.20121 -2.52591,1.25611 -5.525254,0.87298 -7.648878,-0.96877 l -10.276046,-8.64501 c -0.194308,-0.16147 -0.429653,-0.2463 -0.667742,-0.2463 z"
       style="fill:#ffffff;fill-opacity:1;stroke-width:2.73662972"
       inkscape:connector-curvature="0" />
  </g>
</svg>
