<?xml version="1.0" encoding="UTF-8" standalone="no"?>
<svg xmlns="http://www.w3.org/2000/svg" height="937.4" width="447.2" version="1.1" viewBox="0 0 118.32999 248.02752">
 <g transform="translate(-66.78 -2.595)">
  <path style="stroke-width:0;fill:#a8b2b8;fill-rule:evenodd" d="m129 22.97 0.0127 89.66c3.935 4.776 48.02 5.596 53.02-0.258l-0.1603-89.15c-4.947-6.239-49.23-6.085-52.87-0.2578z"/>
  <path style="stroke-width:0;fill:#34495e;fill-rule:evenodd" d="m129 24.01 0.0127 87.89c3.938 4.681 48.05 5.485 53.06-0.2529l-0.1603-87.39c-4.95-6.116-49.27-5.965-52.91-0.2527z"/>
  <path style="stroke-width:0;fill:#001424;fill-rule:evenodd" d="m130 96.33v6.934l50.92-0.1401 0.0332-6.654z"/>
  <path style="stroke-width:0;fill:#001424;fill-rule:evenodd" d="m130 29.43v3.091l50.78-0.02383 0.0332-2.954z"/>
  <ellipse style="fill:#2980b9;stroke-width:0;stroke-miterlimit:2.013;fill-rule:evenodd" rx="1.023pt" ry="1.075pt" cy="24.73" cx="175.9" stroke-miterlimit="2.013"/>
  <path style="stroke-width:0;fill:#001424;fill-rule:evenodd" d="m149.1 19.81c4.288-0.1318 8.553-0.1647 12.75 0.06883l-2.138 1.72-8.498-0.0365z"/>
  <path style="color-rendering:auto;color:#000000;isolation:auto;mix-blend-mode:normal;shape-rendering:auto;solid-color:#000000;image-rendering:auto;fill:#12baf4" d="m130 79.33h50.75v16.54h-50.75z"/>
  <path style="color-rendering:auto;color:#000000;isolation:auto;mix-blend-mode:normal;shape-rendering:auto;solid-color:#000000;image-rendering:auto;fill:#12baf4" d="m130 33.08h50.75v16.54h-50.75z"/>
  <path style="color-rendering:auto;color:#000000;isolation:auto;mix-blend-mode:normal;shape-rendering:auto;solid-color:#000000;image-rendering:auto;fill:#00be6b" d="m130 50.15h25.04v28.65h-25.04z"/>
  <rect style="color-rendering:auto;color:#000000;isolation:auto;mix-blend-mode:normal;shape-rendering:auto;solid-color:#000000;image-rendering:auto;fill:#00be6b" height="28.65" width="25.04" y="50.15" x="155.7"/>
  <path style="color-rendering:auto;color:#000000;isolation:auto;mix-blend-mode:normal;shape-rendering:auto;solid-color:#000000;image-rendering:auto;fill:#74787a" transform="matrix(0 .2025 .2025 0 130.2 33.18)" d="m-125.9 146-25.12-43.51h50.24z"/>
  <path style="stroke-width:1.231" d="m160.5 69.55c-0.4483 0-0.8793-0.2451-1.097-0.6699-0.585-1.142-0.8805-2.367-0.8805-3.64s0.2956-2.499 0.8805-3.64c0.3091-0.6047 1.052-0.8448 1.658-0.5345 0.6059 0.3103 0.8448 1.052 0.5357 1.658-0.4064 0.7906-0.6108 1.638-0.6108 2.517 0 0.8793 0.2044 1.727 0.6096 2.517 0.3091 0.6047 0.0702 1.347-0.5357 1.658-0.1786 0.09236-0.3707 0.1355-0.5591 0.1355z"/>
  <path style="stroke-width:1.231" d="m176.5 69.55c-0.1884 0-0.3805-0.0431-0.5591-0.1355-0.6059-0.3091-0.846-1.052-0.5369-1.656 0.4052-0.7931 0.6108-1.64 0.6108-2.518s-0.2056-1.725-0.6108-2.518c-0.3091-0.6059-0.0702-1.347 0.5369-1.656 0.601-0.3103 1.347-0.07142 1.658 0.5357 0.585 1.143 0.8805 2.367 0.8805 3.639s-0.2956 2.496-0.8805 3.639c-0.218 0.4261-0.6514 0.6712-1.098 0.6712z"/>
  <path style="stroke-width:1.231" d="m180.9 100.3h-13.58c-1.617 0-3.133-0.7943-4.054-2.124l-9.512-13.74c-0.4507-0.6527-0.6872-1.415-0.6872-2.206 0-1.48 0.8226-2.81 2.146-3.473 1.046-0.5222 2.302-0.3744 3.194 0.3793l4.639 3.901c0.218 0.1896 0.5024 0.2254 0.7414 0.1059 0.2229-0.1121 0.3621-0.3362 0.3621-0.5862v-17.32c0-2.377 1.933-4.31 4.31-4.31s4.31 1.933 4.31 4.31v10.18c0 0.2931 0.2094 0.5492 0.4975 0.6071l8.646 1.729c1.837 0.3657 3.171 1.993 3.171 3.867l-0.0234 0.6207-1.09 15.23c-0.1121 1.603-1.462 2.86-3.069 2.86z"/>
  <path style="stroke-width:1.231;fill:#fff" d="m156.5 80.95-0.2081 0.04926c-0.484 0.2426-0.7845 0.729-0.7845 1.27 0 0.2894 0.0862 0.5677 0.2512 0.8054l9.511 13.73c0.4593 0.6675 1.218 1.064 2.027 1.064h13.58c0.3214 0 0.5911-0.25 0.6145-0.5714l1.09-15.24 0.016-0.4409c0-0.7044-0.5-1.315-1.191-1.453l-8.646-1.729c-1.436-0.2869-2.478-1.558-2.478-3.021v-10.18c0-1.018-0.8288-1.847-1.847-1.847s-1.847 0.8288-1.847 1.847v17.36c0 1.19-0.6613 2.259-1.724 2.791-1.137 0.5653-2.486 0.3928-3.442-0.4359l-4.624-3.89c-0.0874-0.07266-0.1934-0.1108-0.3005-0.1108z"/>
  <path transform="matrix(0 .2025 -.2025 0 122.7 33.18)" style="color-rendering:auto;color:#000000;isolation:auto;mix-blend-mode:normal;shape-rendering:auto;solid-color:#000000;image-rendering:auto;fill:#74787a" d="m-125.9 146-25.12-43.51h50.24z"/>
  <path style="stroke-width:0;fill:#a8b2b8;fill-rule:evenodd" d="m69.45 22.16 0.01269 89.66c3.935 4.776 48.02 5.596 53.02-0.258l-0.1603-89.15c-4.9-6.17-49.21-6.02-52.85-0.19z"/>
  <path style="stroke-width:0;fill:#34495e;fill-rule:evenodd" d="m69.43 23.2 0.0127 87.89c3.938 4.681 48.05 5.485 53.06-0.2529l-0.1603-87.39c-4.9-6.07-49.23-5.92-52.87-0.21z"/>
  <path style="stroke-width:0;fill:#001424;fill-rule:evenodd" d="m70.46 95.52v6.934l50.92-0.1401 0.0332-6.654z"/>
  <path style="stroke-width:0;fill:#001424;fill-rule:evenodd" d="m70.44 28.62v3.091l50.78-0.02383 0.0332-2.954z"/>
  <ellipse style="fill:#2980b9;stroke-width:0;stroke-miterlimit:2.013;fill-rule:evenodd" rx="1.023pt" ry="1.075pt" cy="23.92" cx="116.4" stroke-miterlimit="2.013"/>
  <path style="stroke-width:0;fill:#001424;fill-rule:evenodd" d="m89.61 19.01c4.288-0.1318 8.553-0.1646 12.75 0.06883l-2.138 1.72-8.498-0.03649z"/>
  <path style="color-rendering:auto;color:#000000;isolation:auto;mix-blend-mode:normal;shape-rendering:auto;solid-color:#000000;image-rendering:auto;fill:#12baf4" d="m70.47 78.52h50.73v16.54h-50.73z"/>
  <path style="color-rendering:auto;color:#000000;isolation:auto;mix-blend-mode:normal;shape-rendering:auto;solid-color:#000000;image-rendering:auto;fill:#12baf4" d="m70.47 32.27h50.73v16.54h-50.73z"/>
  <path d="m70.48 49.34h25.03v28.65h-25.03z" style="color-rendering:auto;color:#000000;isolation:auto;mix-blend-mode:normal;shape-rendering:auto;solid-color:#000000;image-rendering:auto;fill:#00be6b"/>
  <rect style="color-rendering:auto;color:#000000;isolation:auto;mix-blend-mode:normal;shape-rendering:auto;solid-color:#000000;image-rendering:auto;fill:#00be6b" height="28.65" width="25.04" y="49.34" x="96.19"/>
  <path style="stroke-width:1.231" d="m74.17 68.74c-0.4483 0-0.8793-0.2451-1.097-0.6699-0.585-1.142-0.8805-2.367-0.8805-3.64s0.2956-2.499 0.8805-3.64c0.3091-0.6047 1.052-0.8448 1.658-0.5345 0.6059 0.3103 0.8448 1.052 0.5357 1.658-0.4064 0.7906-0.6108 1.638-0.6108 2.517 0 0.8793 0.2044 1.727 0.6096 2.517 0.3091 0.6047 0.07019 1.347-0.5357 1.658-0.1786 0.09236-0.3707 0.1355-0.5591 0.1355z"/>
  <path style="stroke-width:1.231" d="m90.17 68.74c-0.1884 0-0.3805-0.0431-0.5591-0.1355-0.6059-0.3091-0.846-1.052-0.5369-1.656 0.4052-0.7931 0.6108-1.64 0.6108-2.518s-0.2057-1.725-0.6108-2.518c-0.3091-0.6059-0.07019-1.347 0.5369-1.656 0.601-0.3103 1.347-0.07142 1.658 0.5357 0.585 1.143 0.8805 2.367 0.8805 3.639s-0.2956 2.496-0.8805 3.639c-0.218 0.4261-0.6515 0.6712-1.098 0.6712z"/>
  <path style="stroke-width:1.231" d="m94.61 99.53h-13.58c-1.617 0-3.133-0.7943-4.054-2.124l-9.52-13.74c-0.4507-0.6527-0.6872-1.415-0.6872-2.206 0-1.48 0.8226-2.81 2.146-3.473 1.046-0.5221 2.302-0.3744 3.194 0.3793l4.639 3.901c0.218 0.1896 0.5024 0.2254 0.7414 0.1059 0.2229-0.1121 0.3621-0.3362 0.3621-0.5862v-17.36c0-2.377 1.933-4.31 4.31-4.31s4.31 1.933 4.31 4.31v10.18c0 0.2931 0.2094 0.5492 0.4975 0.6071l8.646 1.729c1.837 0.3657 3.171 1.993 3.171 3.867l-0.0234 0.6207-1.09 15.23c-0.1121 1.603-1.462 2.86-3.069 2.86z"/>
  <path style="stroke-width:1.231;fill:#fff" d="m70.23 80.15-0.2081 0.04926c-0.484 0.2426-0.7845 0.729-0.7845 1.27 0 0.2894 0.0862 0.5677 0.2512 0.8054l9.511 13.73c0.4593 0.6675 1.218 1.064 2.027 1.064h13.58c0.3214 0 0.5911-0.25 0.6145-0.5714l1.09-15.24 0.01603-0.4409c0-0.7044-0.5-1.315-1.191-1.453l-8.64-1.73c-1.44-0.29-2.48-1.56-2.48-3.02v-10.19c0-1.018-0.8288-1.847-1.847-1.847s-1.847 0.8288-1.847 1.847v17.36c0 1.19-0.6613 2.259-1.724 2.791-1.137 0.5653-2.486 0.3928-3.442-0.4359l-4.624-3.89c-0.08744-0.07266-0.1933-0.1108-0.3005-0.1108z"/>
  <path style="color-rendering:auto;color:#000000;isolation:auto;mix-blend-mode:normal;shape-rendering:auto;solid-color:#000000;image-rendering:auto;fill:#74787a" d="m154.3 139.6-5.087-8.811h10.17z"/>
  <path style="stroke-width:0;fill:#a8b2b8;fill-rule:evenodd" d="m129.1 149.7 0.0127 89.66c3.935 4.776 48.02 5.596 53.02-0.258l-0.1603-89.15c-4.947-6.239-49.23-6.085-52.87-0.2578z"/>
  <path style="stroke-width:0;fill:#34495e;fill-rule:evenodd" d="m129.1 150.7 0.0127 87.89c3.938 4.681 48.05 5.485 53.06-0.2529l-0.1603-87.39c-4.95-6.116-49.27-5.965-52.91-0.2527z"/>
  <path style="stroke-width:0;fill:#001424;fill-rule:evenodd" d="m130.1 223v6.934l50.92-0.1401 0.0332-6.654z"/>
  <path style="stroke-width:0;fill:#001424;fill-rule:evenodd" d="m130.1 156.1v3.091l50.78-0.0239 0.0332-2.954z"/>
  <ellipse style="fill:#2980b9;stroke-width:0;stroke-miterlimit:2.013;fill-rule:evenodd" rx="1.023pt" ry="1.075pt" cy="151.4" cx="176" stroke-miterlimit="2.013"/>
  <path style="stroke-width:0;fill:#001424;fill-rule:evenodd" d="m149.3 146.5c4.288-0.1318 8.553-0.1646 12.75 0.0688l-2.138 1.72-8.498-0.0365z"/>
  <path style="color-rendering:auto;color:#000000;isolation:auto;mix-blend-mode:normal;shape-rendering:auto;solid-color:#000000;image-rendering:auto;fill:#12baf4" d="m130.1 206h50.75v16.54h-50.75z"/>
  <path style="color-rendering:auto;color:#000000;isolation:auto;mix-blend-mode:normal;shape-rendering:auto;solid-color:#000000;image-rendering:auto;fill:#12baf4" d="m130.1 159.8h50.75v16.54h-50.75z"/>
  <path style="color-rendering:auto;color:#000000;isolation:auto;mix-blend-mode:normal;shape-rendering:auto;solid-color:#000000;image-rendering:auto;fill:#00be6b" d="m130.1 176.9h25.04v28.65h-25.04z"/>
  <rect style="color-rendering:auto;color:#000000;isolation:auto;mix-blend-mode:normal;shape-rendering:auto;solid-color:#000000;image-rendering:auto;fill:#00be6b" height="28.65" width="25.04" y="176.9" x="155.8"/>
  <path style="stroke-width:1.231" d="m145.7 219.8c-0.4483 0-0.8793-0.2451-1.097-0.6699-0.585-1.142-0.8805-2.367-0.8805-3.64s0.2956-2.499 0.8805-3.64c0.3091-0.6047 1.052-0.8448 1.658-0.5345 0.6059 0.3103 0.8448 1.052 0.5357 1.658-0.4064 0.7906-0.6108 1.638-0.6108 2.517 0 0.8793 0.2044 1.727 0.6096 2.517 0.3091 0.6046 0.0702 1.347-0.5357 1.658-0.1786 0.0923-0.3707 0.1355-0.5591 0.1355z"/>
  <path style="stroke-width:1.231" d="m161.7 219.8c-0.1884 0-0.3805-0.0431-0.5591-0.1355-0.6059-0.3091-0.846-1.052-0.5369-1.656 0.4052-0.7931 0.6108-1.64 0.6108-2.518s-0.2057-1.725-0.6108-2.518c-0.3091-0.6059-0.0702-1.347 0.5369-1.656 0.601-0.3103 1.347-0.0714 1.658 0.5357 0.585 1.143 0.8805 2.367 0.8805 3.639s-0.2956 2.496-0.8805 3.639c-0.218 0.4261-0.6515 0.6712-1.098 0.6712z"/>
  <path style="stroke-width:1.231" d="m166.1 250.6h-13.6c-1.617 0-3.133-0.7943-4.054-2.124l-9.512-13.74c-0.4507-0.6527-0.6872-1.415-0.6872-2.206 0-1.48 0.8226-2.81 2.146-3.473 1.046-0.5222 2.302-0.3744 3.194 0.3793l4.639 3.901c0.218 0.1896 0.5024 0.2254 0.7414 0.1059 0.2229-0.1121 0.362-0.3362 0.362-0.5862v-17.4c0-2.377 1.933-4.31 4.31-4.31s4.31 1.933 4.31 4.31v10.18c0 0.2931 0.2094 0.5492 0.4975 0.6071l8.646 1.729c1.837 0.3658 3.171 1.993 3.171 3.867l-0.0234 0.6207-1.09 15.23c-0.1121 1.603-1.462 2.86-3.069 2.86z"/>
  <path style="stroke-width:1.231;fill:#fff" d="m141.7 231.2-0.2081 0.0493c-0.484 0.2426-0.7844 0.729-0.7844 1.27 0 0.2894 0.0862 0.5677 0.2512 0.8054l9.511 13.73c0.4594 0.6675 1.218 1.064 2.027 1.064h13.58c0.3214 0 0.5911-0.25 0.6145-0.5714l1.09-15.24 0.016-0.4409c0-0.7044-0.5-1.315-1.191-1.453l-8.646-1.729c-1.436-0.2869-2.478-1.558-2.478-3.021v-10.1c0-1.018-0.8288-1.847-1.847-1.847s-1.847 0.8288-1.847 1.847v17.36c0 1.19-0.6613 2.259-1.724 2.791-1.137 0.5652-2.486 0.3928-3.442-0.436l-4.624-3.89c-0.0874-0.0727-0.1933-0.1108-0.3005-0.1108z"/>
  <path transform="scale(1,-1)" style="color-rendering:auto;color:#000000;isolation:auto;mix-blend-mode:normal;shape-rendering:auto;solid-color:#000000;image-rendering:auto;fill:#74787a" d="m96.44-130.8-5.087-8.811h10.17z"/>
  <path style="stroke-width:0;fill:#a8b2b8;fill-rule:evenodd" d="m69.92 149.7 0.01269 89.66c3.935 4.776 48.02 5.596 53.02-0.258l-0.1603-89.15c-4.947-6.239-49.23-6.085-52.87-0.2578z"/>
  <path style="stroke-width:0;fill:#34495e;fill-rule:evenodd" d="m69.9 150.7 0.0127 87.89c3.938 4.681 48.05 5.485 53.06-0.2529l-0.1603-87.39c-4.95-6.116-49.27-5.965-52.91-0.2527z"/>
  <path style="stroke-width:0;fill:#001424;fill-rule:evenodd" d="m70.93 223v6.934l50.92-0.1401 0.0332-6.654z"/>
  <path style="stroke-width:0;fill:#001424;fill-rule:evenodd" d="m70.91 156.1v3.091l50.78-0.0239 0.0332-2.954z"/>
  <ellipse style="fill:#2980b9;stroke-width:0;stroke-miterlimit:2.013;fill-rule:evenodd" rx="1.023pt" ry="1.075pt" cy="151.4" cx="116.8" stroke-miterlimit="2.013"/>
  <path style="stroke-width:0;fill:#001424;fill-rule:evenodd" d="m90.08 146.5c4.288-0.1318 8.553-0.1646 12.75 0.0688l-2.138 1.72-8.498-0.0365z"/>
  <path style="color-rendering:auto;color:#000000;isolation:auto;mix-blend-mode:normal;shape-rendering:auto;solid-color:#000000;image-rendering:auto;fill:#12baf4" d="m70.94 206h50.75v16.54h-50.76z"/>
  <path style="color-rendering:auto;color:#000000;isolation:auto;mix-blend-mode:normal;shape-rendering:auto;solid-color:#000000;image-rendering:auto;fill:#12baf4" d="m70.94 159.8h50.75v16.54h-50.76z"/>
  <path d="m70.95 176.9h25.03v28.65h-25.03z" style="color-rendering:auto;color:#000000;isolation:auto;mix-blend-mode:normal;shape-rendering:auto;solid-color:#000000;image-rendering:auto;fill:#00be6b"/>
  <rect style="color-rendering:auto;color:#000000;isolation:auto;mix-blend-mode:normal;shape-rendering:auto;solid-color:#000000;image-rendering:auto;fill:#00be6b" height="28.65" width="25.04" y="176.9" x="96.66"/>
  <path style="stroke-width:1.231" d="m86.49 171.6c-0.4483 0-0.8793-0.2451-1.097-0.6699-0.585-1.142-0.8805-2.367-0.8805-3.64s0.2956-2.499 0.8805-3.64c0.3091-0.6046 1.052-0.8448 1.658-0.5345 0.6059 0.3103 0.8448 1.052 0.5357 1.658-0.4064 0.7906-0.6108 1.638-0.6108 2.517 0 0.8793 0.2044 1.727 0.6096 2.517 0.3091 0.6046 0.07019 1.347-0.5357 1.658-0.1786 0.0924-0.3707 0.1355-0.5591 0.1355z"/>
  <path style="stroke-width:1.231" d="m102.5 171.6c-0.1884 0-0.3805-0.0431-0.5591-0.1355-0.6059-0.3091-0.846-1.052-0.5369-1.656 0.4052-0.7931 0.6108-1.64 0.6108-2.518s-0.2056-1.725-0.6108-2.518c-0.3091-0.6059-0.0702-1.347 0.5369-1.656 0.601-0.3103 1.347-0.0714 1.658 0.5357 0.585 1.143 0.8805 2.367 0.8805 3.639s-0.2956 2.496-0.8805 3.639c-0.218 0.4261-0.6514 0.6712-1.098 0.6712z"/>
  <path style="stroke-width:1.231" d="m106.9 202.4h-13.55c-1.617 0-3.133-0.7943-4.054-2.124l-9.512-13.74c-0.4507-0.6527-0.6872-1.415-0.6872-2.206 0-1.48 0.8226-2.81 2.146-3.473 1.046-0.5222 2.302-0.3744 3.194 0.3793l4.639 3.901c0.218 0.1896 0.5024 0.2254 0.7414 0.1059 0.2229-0.1121 0.3621-0.3362 0.3621-0.5862v-17.36c0-2.377 1.933-4.31 4.31-4.31s4.31 1.933 4.31 4.31v10.18c0 0.2931 0.2094 0.5492 0.4975 0.6071l8.646 1.729c1.837 0.3658 3.171 1.993 3.171 3.867l-0.0234 0.6207-1.09 15.23c-0.1121 1.603-1.462 2.86-3.069 2.86z"/>
  <path style="stroke-width:1.231;fill:#fff" d="m82.56 183-0.2081 0.0493c-0.484 0.2426-0.7845 0.729-0.7845 1.27 0 0.2894 0.0862 0.5677 0.2512 0.8054l9.511 13.73c0.4593 0.6675 1.218 1.064 2.027 1.064h13.58c0.3214 0 0.5911-0.25 0.6145-0.5714l1.09-15.24 0.016-0.4409c0-0.7044-0.5-1.315-1.191-1.453l-8.646-1.729c-1.436-0.2869-2.478-1.558-2.478-3.021v-10.1c0-1.018-0.8288-1.847-1.847-1.847s-1.847 0.8288-1.847 1.847v17.36c0 1.19-0.6613 2.259-1.724 2.791-1.137 0.5652-2.486 0.3928-3.442-0.4359l-4.624-3.89c-0.08744-0.0727-0.1933-0.1108-0.3005-0.1108z"/>
 </g>
</svg>
