<?xml version="1.0" encoding="UTF-8" standalone="no"?>
<!-- Created with Inkscape (http://www.inkscape.org/) -->

<svg
   xmlns:dc="http://purl.org/dc/elements/1.1/"
   xmlns:cc="http://creativecommons.org/ns#"
   xmlns:rdf="http://www.w3.org/1999/02/22-rdf-syntax-ns#"
   xmlns:svg="http://www.w3.org/2000/svg"
   xmlns="http://www.w3.org/2000/svg"
   xmlns:sodipodi="http://sodipodi.sourceforge.net/DTD/sodipodi-0.dtd"
   xmlns:inkscape="http://www.inkscape.org/namespaces/inkscape"
   width="579.55267"
   height="106.17893"
   viewBox="0 0 153.33998 28.093174"
   version="1.1"
   id="svg9265"
   sodipodi:docname="logo.svg"
   inkscape:version="0.92.0 unknown">
  <defs
     id="defs9259" />
  <sodipodi:namedview
     id="base"
     pagecolor="#ffffff"
     bordercolor="#666666"
     borderopacity="1.0"
     inkscape:pageopacity="0.0"
     inkscape:pageshadow="2"
     inkscape:zoom="0.8140444"
     inkscape:cx="225.21172"
     inkscape:cy="40.590498"
     inkscape:document-units="mm"
     inkscape:current-layer="layer1"
     showgrid="false"
     fit-margin-top="0"
     fit-margin-left="0"
     fit-margin-right="0"
     fit-margin-bottom="0"
     inkscape:snap-global="false"
     inkscape:window-width="1851"
     inkscape:window-height="1053"
     inkscape:window-x="69"
     inkscape:window-y="27"
     inkscape:window-maximized="1"
     units="px" />
  <metadata
     id="metadata9262">
    <rdf:RDF>
      <cc:Work
         rdf:about="">
        <dc:format>image/svg+xml</dc:format>
        <dc:type
           rdf:resource="http://purl.org/dc/dcmitype/StillImage" />
        <dc:title></dc:title>
      </cc:Work>
    </rdf:RDF>
  </metadata>
  <g
     inkscape:label="Capa 1"
     inkscape:groupmode="layer"
     id="layer1"
     transform="translate(-28.330186,-134.4534)">
    <path
       style="fill:#000000;stroke-width:0.15875001"
       d="m 126.45215,134.4534 c -0.69335,3.2e-4 -1.41169,0.0549 -2.1701,0.16123 -0.96044,0.13467 -2.17488,0.39444 -2.69875,0.57702 -0.52388,0.18259 -1.09538,0.37262 -1.27,0.4223 -0.84957,0.24167 -3.03218,1.46034 -3.77249,2.10654 -1.41831,1.23801 -1.32769,1.19833 -1.73818,0.76554 -0.1997,-0.21056 -0.75599,-0.67498 -1.23621,-1.03188 -3.17549,-2.36001 -7.72023,-3.29565 -11.38411,-2.34373 -1.20844,0.31396 -2.466835,0.72557 -2.665262,0.87188 -0.08731,0.0644 -0.425219,0.20298 -0.750962,0.30789 -0.783532,0.25235 -2.726207,1.53269 -3.59296,2.36792 l -0.69298,0.66756 -0.73577,-0.68741 c -2.037081,-1.90218 -4.302868,-2.999 -7.612557,-3.68535 -3.403378,-0.70578 -7.420212,0.21222 -10.746012,2.45597 l -1.11249,0.75066 -1.05978,-0.96987 c -0.829452,-0.75923 -1.346455,-1.08052 -2.38001,-1.47867 -2.094732,-0.80694 -2.521506,-0.84191 -9.257728,-0.75623 -6.653287,0.0846 -7.867602,0.15357 -8.509249,0.48214 -0.353609,0.18109 -0.464909,0.17504 -0.775456,-0.0425 -0.323671,-0.2267 -0.977319,-0.17053 -6.095752,-0.14015 -9.560458,0.0568 -10.771544,-0.22798 -13.591419,0.65702 -1.86009,0.58378 -3.32374,2.23771 -4.012468,3.99107 -0.27981,0.71241 -0.292865,1.24821 -0.230993,9.51632 l 0.06542,8.76164 0.42385,0.86599 c 1.495746,3.0572 5.490238,4.14834 8.391736,2.29227 0.464574,-0.29718 0.950782,-0.64947 1.080244,-0.7829 1.338756,-1.37989 1.740097,-2.33175 2.050417,-4.86203 0.07853,-0.64031 0.168748,-1.19039 0.200608,-1.22225 0.03187,-0.0319 1.993472,-0.10641 4.358804,-0.16557 l 4.300513,-0.1076 0.07069,1.88547 c 0.07897,2.10843 0.342686,2.93957 1.250156,3.93681 1.45119,1.59475 4.667989,2.17581 6.895394,1.24551 0.730625,-0.30516 1.9667,-1.10126 2.271488,-1.46286 0.530922,-0.62986 0.968637,-1.87859 1.032496,-2.94555 0.03923,-0.65538 0.134315,-1.09674 0.231923,-1.07622 0.155197,0.0327 2.244417,1.43717 2.417218,1.62502 0.04366,0.0475 0.293687,0.23503 0.555625,0.41672 1.885954,1.30812 2.228289,1.5609 2.27521,1.67928 0.02911,0.0734 0.113971,0.13332 0.188515,0.13332 0.07454,0 0.87216,0.52449 1.772604,1.1652 1.912117,1.36059 2.688104,1.63747 3.854648,1.37604 1.024476,-0.22959 1.651977,-0.62874 2.53907,-1.6154 l 0.722127,-0.80336 0.535782,0.40865 c 0.799631,0.60991 3.08746,1.59196 4.701418,2.01817 0.392904,0.10377 1.250154,0.23752 1.905,0.29704 v -3.2e-4 c 4.257082,0.38677 8.254359,-0.9645 11.387211,-3.84968 l 0.671587,-0.61857 0.79685,0.71623 c 3.40854,3.06458 8.690814,4.47487 12.553354,3.35142 0.93696,-0.27252 0.95734,-0.27435 2.63952,-0.22665 2.34599,0.0665 3.85044,-0.85237 5.05303,-2.68776 l 1.05575,-0.62614 0.74879,0.50787 c 1.46487,0.99351 2.52646,1.52773 4.15912,2.09321 1.81947,0.63017 3.86994,0.75747 6.11188,0.37889 0.60418,-0.10203 1.42,-0.17791 1.81291,-0.16867 2.71418,0.0641 3.30638,0.0346 3.94891,-0.19627 0.60523,-0.2175 2.04545,-0.24991 11.18753,-0.24991 10.21637,0 10.52051,-0.009 11.54845,-0.333 l 1.05574,-0.33331 0.66694,0.48307 c 0.7743,0.5609 2.10703,0.88518 2.97501,0.72399 2.1278,-0.39515 3.27155,-1.70199 4.08564,-4.66825 0.15576,-0.56753 0.3292,-1.15593 0.38571,-1.30751 0.0859,-0.23046 0.37603,-0.0653 1.76982,1.008 0.91678,0.70598 1.80976,1.34894 1.98438,1.42844 0.17462,0.0795 0.78183,0.50138 1.34938,0.93762 2.76652,2.12654 3.94228,2.65309 5.54508,2.48263 3.43159,-0.36493 5.72616,-2.72241 5.72616,-5.88336 0,-2.12937 -0.42779,-2.89009 -2.65906,-4.7287 -0.28376,-0.23384 -0.51594,-0.49056 -0.51594,-0.57051 0,-0.0799 0.16617,-0.45959 0.36928,-0.84367 0.7983,-1.50965 1.37697,-3.80884 1.37697,-5.47098 -0.0314,-1.67611 -0.22113,-3.24659 -1.4151,-4.98388 -1.76864,-2.38281 -3.94206,-3.32316 -3.96348,-3.33065 -1.45344,-0.5087 -2.7552,-0.80368 -10.72028,-0.80368 -5.46256,0 -7.54119,0.0499 -7.67519,0.18387 -0.1392,0.1392 -0.23974,0.13743 -0.41393,-0.007 -0.17499,-0.14522 -2.48201,-0.1782 -9.65057,-0.1386 -8.99916,0.0497 -9.45279,0.0662 -10.1352,0.36804 -1.13997,0.5043 -1.64144,0.8064 -2.03243,1.22504 l -0.36556,0.39161 -1.46533,-0.7553 c -2.01904,-1.04059 -3.87215,-1.52727 -5.9522,-1.52611 z"
       id="path10125"
       inkscape:connector-curvature="0"
       sodipodi:nodetypes="cccccccsccccccccccsccssccccccccccccsccccccsccccccccccccscccccccscccsscccccscsccccssccccccc" />
    <path
       style="fill:#ffffff;fill-opacity:1;stroke-width:0.15875001"
       d="m 126.10767,135.11755 c 4.04783,-0.48165 7.93412,4.00212 11.42284,0.43509 10.48993,-0.71755 21.01341,0.1172 31.51842,-0.19462 6.82647,-1.38392 13.40786,6.86208 9.07614,12.89527 -1.73198,4.0337 6.10679,6.41355 1.49497,10.5181 -5.48443,5.49815 -9.50339,-2.80105 -14.51176,-3.89551 -2.05383,2.12405 -2.37057,7.29811 -7.13252,5.50917 -4.60023,-1.17765 -9.1618,0.39553 -13.83598,-0.0689 -6.61538,-0.33954 -13.18555,0.95312 -19.78007,0.63876 -4.34647,0.43818 -8.22184,-7.28134 -10.43575,-0.72333 -5.1152,1.66788 -11.87058,2.87777 -16.364307,-0.8809 -4.846462,-6.08288 -4.958177,3.5124 -15.439481,2.50435 -4.112385,-0.16557 -6.612515,-4.71946 -9.501475,-0.60214 -4.950913,1.59761 -9.575671,-8.55619 -12.822717,-4.96253 1.267482,6.86759 -12.212629,6.27073 -9.730988,-2.98018 -6.283573,0.26851 -10.1288,0.32221 -10.1288,0.32221 0,0 -0.614578,2.51145 -0.740515,4.25655 -1.741225,6.54147 -11.373682,3.65 -10.212545,-2.68569 0.470393,-4.93391 -0.402991,-9.89162 0.131601,-14.79988 2.132966,-6.19639 10.339979,-4.10207 15.396521,-4.48854 5.885674,-0.14696 10.770791,-0.027 16.692723,-0.5056 8.055408,-0.74928 11.52102,1.1825 13.189611,3.95303 5.299303,-5.73928 15.286172,-4.88288 19.974317,0.80541 4.940612,-5.96857 15.215245,-6.71071 20.512345,-0.82276 3.43634,-2.01273 6.9982,-4.75422 11.22742,-4.22735 z"
       id="path10119"
       inkscape:connector-curvature="0"
       sodipodi:nodetypes="ccccccccccccccccccccccccc" />
    <path
       style="fill:#000000;stroke-width:0.15875001"
       d="m 157.69241,136.59932 c -0.30529,0.27722 -0.90921,1.06892 -1.25512,0.82879 -0.13556,-0.0989 -0.56796,-0.32767 -0.96087,-0.50819 -0.69978,-0.32149 -0.89271,-0.32702 -9.44562,-0.27068 -9.60001,0.0632 -9.26578,0.029 -10.36557,1.06009 -0.28765,0.26968 -0.62697,0.73918 -0.75407,1.04335 -0.55305,1.55763 0.12018,1.59648 0.47099,2.68944 0.29933,0.95168 0.24159,1.89698 -0.1479,2.42311 -0.19087,0.25783 -0.21514,0.17882 -0.20464,-0.6688 0.017,-1.3719 -0.31493,-2.04862 -1.71463,-3.49404 -1.89683,-1.95882 -4.6357,-3.0811 -7.52481,-3.0823 -3.00432,-0.002 -5.9745,1.11955 -8.01222,3.02431 -1.65993,1.35888 -2.88748,3.41383 -3.43793,5.2186 -0.47254,1.65241 -0.439,1.78165 0.6319,2.44264 0.9729,0.60052 1.47231,1.05885 1.15372,1.05885 -0.098,0 -0.17797,-0.0587 -0.17797,-0.13053 0,-0.0718 -0.32669,-0.29364 -0.72584,-0.49299 -0.60356,-0.30144 -1.14472,-0.38903 -3.21469,-0.51998 -4.2561,-0.26923 -5.70473,-0.0503 -6.82129,1.03033 -0.85057,0.82322 -1.1832,2.4933 -0.73112,3.67141 0.13102,0.34143 -0.21155,0.32356 -1.06784,-0.0558 -2.50966,-1.11188 -3.15254,-4.5794 -1.20923,-6.52271 0.8296,-0.8296 1.50554,-1.10721 2.69534,-1.10721 1.32757,0 2.39501,0.41524 3.35793,1.30596 1.60647,1.48593 3.36009,1.60725 4.84622,0.33518 1.20046,-1.02755 1.59593,-2.61233 0.98382,-3.94302 -0.367,-0.79782 -2.01871,-2.46751 -3.1688,-3.20322 -3.02666,-1.93612 -7.17882,-2.36232 -10.44867,-1.0728 -2.007136,0.79155 -3.609951,1.87963 -4.731492,3.21252 -1.444881,1.71715 -1.464915,1.76713 -1.052647,2.61876 0.606135,1.25211 0.967174,2.82243 1.029393,4.47724 0.03289,0.87312 0.03341,1.30175 0.0013,0.9525 -0.275629,-2.99261 -0.788108,-4.68903 -1.930114,-6.39 -1.534226,-2.28517 -2.972042,-3.51535 -5.230379,-4.47477 -3.726465,-1.58311 -7.987036,-1.16278 -11.475577,1.13203 -1.175437,0.77322 -2.759929,2.51282 -3.080744,3.38274 -0.115616,0.31354 -0.11991,0.3139 -0.343854,0.01 -0.273672,-0.51557 -0.384437,-1.24878 -0.611068,-1.70059 -0.765199,-1.62318 -2.536639,-3.27042 -5.063314,-3.63691 -1.059678,-0.21641 -2.124939,-0.1426 -7.302499,-0.065 -3.413143,0.0512 -6.351558,0.16447 -6.725171,0.25921 -1.181802,0.29967 -1.590301,0.9478 -1.067532,1.69416 0.167502,0.23914 0.261672,0.74873 0.277812,1.50378 0.02757,1.28766 -0.294348,2.09296 -1.266899,3.17035 -0.599219,0.6638 -0.57766,0.84233 0.186345,1.54347 0.237852,0.21828 0.600901,0.75407 0.806773,1.19063 0.704472,1.49386 0.376681,3.10288 -0.873435,4.28749 l -0.653913,0.6198 v 2.63643 c 0,3.0189 0.150936,3.55581 1.242714,4.42051 0.794424,0.6292 1.302407,0.81572 2.22033,0.81452 1.058536,-0.001 1.763629,-0.23487 2.470856,-0.81824 0.871765,-0.71911 1.197951,-1.5362 1.225972,-3.07051 0.01276,-0.6985 0.06781,-1.77006 0.122473,-2.38125 l 0.09953,-1.11125 c 1.970997,0.26694 2.988306,1.71101 4.380817,2.46899 0.275945,0.14769 4.547228,3.21697 5.541057,3.98178 1.267508,0.97542 2.958721,1.21787 4.223617,0.60554 0.745465,-0.36087 1.632874,-1.36113 1.964842,-2.21444 0.118884,-0.30559 0.233558,-0.57891 0.254557,-0.60771 0.02101,-0.0288 0.542123,0.37052 1.158069,0.88769 1.731648,1.45396 3.309903,2.2083 5.559352,2.65659 3.620843,0.72158 7.62147,-0.52096 10.255188,-3.18524 1.68335,-1.70287 2.610614,-3.36822 3.309255,-5.94258 l 0.236885,-0.87312 0.01086,0.635 c 0.01138,0.67198 -0.414624,2.18447 -0.864753,3.07051 -0.35048,0.6899 -0.224464,0.9605 1.103808,2.36853 3.116558,3.30372 7.676066,4.6308 11.619446,3.38181 l 1.128,-0.35749 0.65174,0.33238 c 1.25077,0.63809 3.11131,0.27134 4.17959,-0.82414 0.62363,-0.63951 0.95282,-1.50957 1.23217,-3.25499 0.14922,-0.93231 0.66914,-1.90711 1.02909,-1.92949 0.63749,-0.39344 0.70901,-1.13148 1.14907,-1.54968 0.13317,0.13317 -0.51374,1.27349 -0.95745,1.68765 -0.52556,0.49054 -0.51847,0.59491 0.0952,1.44891 1.24224,1.72878 3.25035,3.20043 5.52524,4.04874 1.08912,0.40615 1.38012,0.44443 3.41313,0.45175 1.84018,0.007 2.42732,-0.052 3.41313,-0.34137 1.08909,-0.3197 1.24476,-0.33001 1.82562,-0.12216 1.02723,0.36758 1.95033,0.29854 3.02493,-0.22573 1.01579,-0.49556 1.30818,-0.75495 1.71122,-1.51773 l 0.25176,-0.47625 c -0.0521,0.61428 0.30839,1.09933 0.64369,1.40642 0.67071,0.60595 1.17032,0.79572 2.06778,0.786 0.30559,-0.003 4.14725,-0.0173 8.53715,-0.031 8.66332,-0.0271 8.83026,-0.0427 9.99102,-0.92801 0.47377,-0.36134 0.52189,-0.37049 0.52369,-0.10108 0.002,0.35902 0.83618,0.92506 1.70843,1.15993 1.41522,0.38108 3.26063,-0.499 3.96502,-1.89135 0.3225,-0.63745 0.35719,-0.93425 0.35719,-3.05377 v -2.34776 h 0.53764 c 0.3801,0 0.83406,0.20804 1.54782,0.70879 0.55549,0.38971 1.65072,1.15766 2.43364,1.70656 0.78292,0.5489 1.48819,1.0246 1.56735,1.0573 0.0792,0.0327 1.21627,0.83625 2.52698,1.78563 2.5637,1.85696 3.20296,2.13932 4.46453,1.97197 0.98944,-0.13125 1.62785,-0.45501 2.27831,-1.15528 1.21948,-1.31284 1.05489,-3.57035 -0.34726,-4.76343 -0.69476,-0.59115 -1.77405,-1.46278 -2.4104,-1.94655 -0.6392,-0.48595 -0.65661,-0.67394 -0.10263,-1.1097 0.6233,-0.49028 1.61453,-1.84961 2.08484,-2.85905 0.65092,-1.95895 0.6507,-4.21521 -0.12403,-5.80057 -0.65513,-1.33518 -2.16008,-2.96455 -3.2491,-3.51762 -1.78596,-0.90698 -1.68778,-0.89688 -9.34579,-0.95994 z m -0.15565,4.3833 -0.0961,0.39688 c -0.15497,0.63914 -0.75614,1.31468 -1.6247,1.82562 -0.44528,0.26194 -0.81087,0.56554 -0.81267,0.67468 -0.002,0.15524 -1.33299,0.19844 -6.11497,0.19844 -5.11533,0 -6.11187,-0.0359 -6.11187,-0.22076 -1e-5,-0.12151 0.16073,-0.26123 0.35718,-0.31037 0.19645,-0.0491 2.83318,-0.0938 5.85949,-0.0998 4.17732,-0.008 5.67647,-0.063 6.22535,-0.22821 0.74172,-0.22322 1.73866,-1.08908 2.11801,-1.83957 z m -31.83929,2.88261 c 1.19964,0.006 1.83546,0.27353 2.9502,1.23962 1.06539,0.92331 1.93802,1.34728 2.77813,1.34968 0.634,0.002 2.16625,-0.59979 2.37101,-0.9311 0.25634,-0.41477 0.56586,-0.16919 0.56586,0.44896 v 0.62384 l -3.45281,0.0512 c -3.20219,0.0475 -3.50467,0.0769 -4.16719,0.4071 -1.42477,0.71003 -2.15089,2.3206 -1.80578,4.00534 0.18819,0.91869 0.0669,0.98918 -0.89173,0.51717 -3.72908,-1.83606 -2.46553,-7.73343 1.65231,-7.71177 z m 31.9689,3.94364 0.0136,0.47625 c 0.0208,0.72785 -0.61368,1.68374 -1.52797,2.30156 -0.9272,0.62655 -1.03589,0.99237 -0.39781,1.33852 v 3.2e-4 c 0.54494,0.29535 0.28507,0.29936 -0.35719,0.005 -0.3765,-0.17237 -1.74804,-0.2197 -6.54843,-0.2251 -5.06068,-0.006 -6.07219,-0.0439 -6.07219,-0.22696 0,-0.12079 0.16074,-0.26271 0.35719,-0.31533 0.19645,-0.0526 2.8575,-0.0968 5.91344,-0.0986 3.17118,-0.002 5.79906,-0.0706 6.1221,-0.1603 1.11116,-0.30868 2.04574,-1.33966 2.37474,-2.61937 z"
       id="path10115"
       inkscape:connector-curvature="0"
       sodipodi:nodetypes="ccccccccccccccsscccccssccscsscccsscccccsccccccccscccccccsccccssccccsccccccccsccccccccccccccscsccccccccccccccccccsccccccccccccccccccccccccsccccc" />
    <path
       style="fill:#00eefe;fill-opacity:1;stroke-width:0.15875001"
       d="m 86.965907,158.73773 c 2.923428,-0.91846 4.844377,-2.42491 6.36083,-4.98832 1.152204,-1.94767 1.373426,-2.76203 1.376545,-5.0673 0.003,-2.2011 -0.2124,-3.17386 -1.14232,-5.15937 -0.676385,-1.44417 -2.593121,-3.36287 -4.305725,-4.31013 -1.583982,-0.87612 -3.417706,-1.55823 -5.124592,-1.55465 -3.358548,0.007 -6.049174,0.32156 -9.513449,4.91561 -0.348702,0.52692 -0.360936,0.62412 -0.19626,1.55901 0.17496,0.99329 -0.01266,2.72107 -0.338814,3.12036 -0.07132,0.0873 -0.256026,0.48021 -0.410448,0.87312 -0.154422,0.39291 -0.45699,0.94914 -0.672372,1.23606 l -0.391602,0.52169 -0.299716,0.60749 c -0.532364,1.07905 0.601173,1.35838 1.573641,2.27457 0.756516,0.71273 1.056342,1.12166 1.186554,1.61827 0.09583,0.36549 0.164256,0.72268 0.152052,0.79375 -0.06379,0.37155 0.811914,0.70576 1.793904,1.48928 1.40316,1.11957 2.67543,1.78437 4.155012,2.17109 2.093088,0.54708 3.831402,0.51694 5.79676,-0.10053 z"
       id="path10113"
       inkscape:connector-curvature="0"
       sodipodi:nodetypes="cscsccccccccscccssc" />
    <g
       id="g10146"
       transform="matrix(0.6,0,0,0.6,42.000071,34.00008)">
      <path
         inkscape:connector-curvature="0"
         id="path10111"
         d="m 71.610792,202.71342 c -0.69348,-0.3048 -1.35595,-0.81367 -1.51568,-1.16426 -0.15607,-0.34253 -0.4639,-0.62279 -0.68407,-0.62279 -0.22017,0 -0.54902,-0.23812 -0.73078,-0.52916 -0.18175,-0.29105 -0.51614,-0.52917 -0.74307,-0.52917 -0.22694,0 -0.53398,-0.12137 -0.68232,-0.26971 -0.18322,-0.18322 -0.64561,-0.13072 -1.44198,0.16372 -1.76337,0.65198 -5.60301,0.64349 -7.15842,-0.0158 -2.20725,-0.93562 -3.11473,-3.29069 -1.86426,-4.83813 0.32384,-0.40073 0.91296,-1.24752 1.30918,-1.88175 0.39622,-0.63423 1.0943,-1.6336 1.55128,-2.22082 0.82491,-1.05998 0.82806,-1.07598 0.43815,-2.22029 -0.216,-0.63394 -0.495,-1.15262 -0.62001,-1.15262 -0.34902,0 -0.77819,-1.83007 -0.77983,-3.32541 -0.002,-1.4625 0.5809,-3.66675 1.17254,-4.43693 0.56748,-0.73873 3.26231,-0.92241 4.27499,-0.29137 1.01842,0.63461 1.59361,1.3356 2.21207,2.6959 0.28119,0.61846 0.56829,1.12448 0.63801,1.12448 0.0697,0 0.058,-0.90907 -0.026,-2.02016 -0.17499,-2.3138 0.13753,-3.13315 1.69234,-4.4369 0.70861,-0.59418 1.24781,-0.79282 2.37706,-0.87568 2.669037,-0.19583 3.544997,0.98029 3.778827,5.07375 l 0.15057,2.6358 0.92604,0.3078 c 2.96019,0.98392 3.6374,1.16996 4.254534,1.16878 1.140333,-0.002 3.783388,1.20239 4.142086,1.88776 0.419203,0.80098 0.414131,3.88732 -0.0076,4.64602 -0.177935,0.32008 -0.939509,1.22153 -1.692392,2.00324 -1.446993,1.50239 -2.818508,2.12628 -4.105018,1.86733 -0.55989,-0.11269 -0.8594,0.0206 -1.37567,0.61212 -0.67436,0.7727 -1.94044,3.54774 -2.55981,5.61073 -0.23557,0.78459 -0.545,1.22627 -0.97317,1.38906 -0.34528,0.13127 -0.6498,0.22681 -0.676707,0.21231 -0.0269,-0.0145 -0.60328,-0.27003 -1.28084,-0.56783 z"
         style="fill:#000000;stroke-width:0.26458335" />
      <path
         inkscape:connector-curvature="0"
         id="path10109"
         d="m 73.645979,200.92858 c 0.27779,-2.52134 0.60503,-3.12788 3.06089,-5.67322 1.80739,-1.87324 2.41976,-3.10011 1.83763,-3.6817 -0.54637,-0.54587 -4.17035,-0.31461 -6.944937,0.44317 -3.49204,0.95374 -4.7097,1.46883 -4.71132,1.99296 -8e-4,0.23886 -0.41992,0.85101 -0.93152,1.36033 -0.5116,0.50932 -1.22537,1.22248 -1.58616,1.5848 -0.75007,0.75324 -0.84854,1.45969 -0.23623,1.69466 0.23087,0.0886 1.17887,-0.015 2.10668,-0.23015 1.18491,-0.2748 2.04786,-0.3238 2.89976,-0.16464 1.46231,0.27318 1.63441,0.41438 1.17697,0.96556 -0.29365,0.35382 -0.28897,0.46295 0.0284,0.6638 0.20892,0.1322 0.52869,0.24219 0.71059,0.24442 0.1819,0.002 0.33073,0.17402 0.33073,0.38175 0,0.20774 0.385,0.67901 0.85556,1.04728 0.778807,0.60951 0.878147,0.62923 1.107257,0.21982 0.13843,-0.24736 0.27148,-0.62934 0.29566,-0.84884 z"
         style="fill:#ffffff;fill-opacity:1;stroke-width:0.26458335" />
      <path
         inkscape:connector-curvature="0"
         id="path10107"
         d="m 62.625842,198.74356 c -0.11842,-1.03236 0.31349,-1.82347 1.71402,-3.13945 0.7475,-0.70239 1.21061,-1.2805 1.02912,-1.28469 -0.85795,-0.0198 -4.38763,2.01094 -5.13473,2.95424 -0.82824,1.04574 -1.66592,1.2892 -2.3264,0.67615 -0.28526,-0.26478 -0.31878,-0.26429 -0.16806,0.002 0.38597,0.68317 2.14004,1.36322 3.54633,1.3749 1.30691,0.0108 1.4031,-0.031 1.33972,-0.58362 z"
         style="fill:#ffffff;fill-opacity:1;stroke-width:0.26458335" />
      <path
         inkscape:connector-curvature="0"
         id="path10105"
         d="m 58.659062,195.00548 c 0.59841,-0.71774 0.2104,-0.71723 -0.70724,7.9e-4 -0.51161,0.40041 -0.85182,0.90557 -0.85182,1.26484 0,0.98635 0.33544,1.0157 0.77605,0.0679 0.22802,-0.49048 0.58037,-1.09062 0.78301,-1.33367 z"
         style="fill:#ffffff;fill-opacity:1;stroke-width:0.26458335" />
      <path
         inkscape:connector-curvature="0"
         id="path10103"
         d="m 62.483902,194.57637 c 0.10058,0 0.62698,-0.27373 1.16979,-0.60829 2.36392,-1.457 6.29888,-2.79568 11.822867,-4.02216 3.48434,-0.77362 5.268969,-0.60565 5.703328,0.5368 0.136771,0.35974 0.44014,0.65407 0.674148,0.65407 0.937662,0 0.133188,0.66697 -0.895959,0.74282 -0.976577,0.072 -1.103917,0.15697 -1.103917,0.73691 0,0.36055 -0.19228,0.94902 -0.4273,1.3077 -0.41058,0.62662 -0.40397,0.65215 0.16881,0.65215 0.797688,0 3.633225,-3.03025 3.843095,-4.107 0.08573,-0.43983 0.117936,-1.33257 0.07157,-1.98386 -0.07769,-1.09136 -0.167243,-1.22335 -1.142632,-1.68415 -1.032134,-0.48761 -2.750203,-0.98813 -5.159373,-1.50307 -0.65485,-0.13997 -1.41891,-0.32666 -1.69793,-0.41488 -0.48298,-0.1527 -0.48115,-0.12714 0.0382,0.53315 0.44876,0.57051 0.50614,0.86827 0.32341,1.67845 -0.25427,1.1274 -0.84385,1.66053 -1.83637,1.66053 -1.267907,0 -1.922267,-1.46591 -0.72995,-1.63525 0.5007,-0.0711 0.6204,-0.2948 0.75318,-1.40746 0.19441,-1.62918 0.0978,-1.92281 -0.63805,-1.9389 -4.615197,-0.10089 -4.943777,-0.30557 -4.943777,-3.07969 0,-1.76801 0.0539,-1.94551 0.81124,-2.67097 0.66993,-0.64173 1.02273,-0.77252 2.02525,-0.75077 1.08086,0.0234 1.16045,-0.0128 0.72569,-0.33073 -0.26857,-0.19639 -0.64798,-0.35707 -0.84312,-0.35707 -0.7449,0 -2.12547,0.76041 -2.70393,1.4893 -0.5563,0.70097 -0.59302,0.95299 -0.4753,3.26187 0.0773,1.51662 0.2452,2.54141 0.42617,2.60174 0.4333,0.14443 0.36602,1.45607 -0.10543,2.05538 -0.39753,0.50533 -0.41069,0.50419 -0.81906,-0.0712 -0.38713,-0.54549 -0.45705,-0.5573 -1.03956,-0.17563 -0.34348,0.22506 -0.74026,0.33766 -0.88173,0.25023 -0.14147,-0.0874 -0.79076,0.20111 -1.44287,0.64121 -1.59636,1.07738 -2.27686,0.82427 -3.23623,-1.20368 -1.00462,-2.12359 -0.82255,-3.6116 0.58793,-4.80507 l 1.01783,-0.86123 -0.73963,-0.004 c -1.00841,-0.005 -2.02852,1.05965 -2.07548,2.16685 -0.1026,2.41898 0.4923,4.56651 1.42863,5.15721 0.42625,0.26892 1.78335,1.91133 1.78335,2.15828 0,0.10189 -0.47625,0.81909 -1.05833,1.59377 -1.11502,1.48395 -1.31975,2.14912 -0.66146,2.14912 0.47632,0 0.52084,0.56395 0.0794,1.00542 -0.24695,0.24694 -0.24299,0.3175 0.0178,0.3175 0.22626,0 0.27506,0.19363 0.15004,0.59531 -0.1788,0.5745 -0.16713,0.57912 0.33374,0.13229 0.28545,-0.25466 0.6013,-0.46302 0.70187,-0.46302 z"
         style="fill:#ffffff;fill-opacity:1;stroke-width:0.26458335" />
      <path
         inkscape:connector-curvature="0"
         id="path10101"
         d="m 67.850102,190.27689 c -0.22951,-0.85639 -0.20673,-0.99218 0.16646,-0.99218 0.18328,0 0.49191,0.25408 0.68585,0.56462 0.2941,0.47093 0.29368,0.60198 -0.002,0.7897 -0.54093,0.34284 -0.67635,0.28513 -0.84981,-0.36214 z"
         style="fill:#000000;stroke-width:0.26458335" />
      <path
         inkscape:connector-curvature="0"
         id="path10099"
         d="m 69.187502,190.05294 c -0.27824,-1.06398 0.37596,-1.69269 1.05487,-1.01378 0.20178,0.20178 0.19796,0.46842 -0.0132,0.92398 -0.36561,0.78868 -0.84801,0.83027 -1.04164,0.0898 z"
         style="fill:#000000;stroke-width:0.26458335" />
      <path
         inkscape:connector-curvature="0"
         id="path10097"
         d="m 80.383327,190.73337 c 0,-0.37235 -1.531498,-0.66373 -2.501668,-0.47597 l -1.07021,0.20712 1.45521,0.16072 c 0.80037,0.0884 1.60404,0.18012 1.78594,0.20384 0.1819,0.0237 0.330728,-0.0193 0.330728,-0.0957 z"
         style="fill:#000000;stroke-width:0.26458335" />
      <path
         inkscape:connector-curvature="0"
         id="path10095"
         d="m 64.649582,184.89023 c -0.45479,-0.45478 -0.54825,-1.83627 -0.14125,-2.08782 0.44771,-0.2767 0.29524,-0.91943 -0.37775,-1.59243 -0.56595,-0.56595 -0.73966,-0.6084 -1.46079,-0.35701 -1.03706,0.36151 -1.33445,0.92301 -1.20984,2.28427 0.10306,1.12601 0.45689,1.99174 1.12939,2.76339 0.37095,0.42565 0.4555,0.42115 1.43016,-0.0761 0.93096,-0.47494 0.99479,-0.56959 0.63008,-0.93431 z"
         style="fill:#ffffff;fill-opacity:1;stroke-width:0.26458335" />
      <path
         inkscape:connector-curvature="0"
         id="path10093"
         d="m 68.038862,184.84143 c -0.17439,-0.66686 -0.67474,-0.75867 -1.132,-0.2077 -0.25451,0.30667 -0.2184,0.35156 0.1957,0.24327 0.32344,-0.0846 0.57133,0.0328 0.6828,0.32327 0.24286,0.63287 0.43989,0.35395 0.2535,-0.35884 z"
         style="fill:#000000;stroke-width:0.26458335" />
      <path
         inkscape:connector-curvature="0"
         id="path10091"
         d="m 66.274522,185.14191 c -0.0957,-0.0958 -0.0458,-0.32866 0.11097,-0.51758 0.15678,-0.18891 0.20385,-0.47488 0.1046,-0.63549 -0.11996,-0.19409 -0.30509,-0.13144 -0.55213,0.18685 -0.35422,0.45641 -0.39645,0.44957 -0.90064,-0.14577 -0.57852,-0.68311 -0.68942,-0.56639 -0.24711,0.26007 0.15504,0.28968 0.54199,0.6315 0.8599,0.75958 0.72796,0.29331 0.84228,0.31021 0.62441,0.0923 z"
         style="fill:#000000;stroke-width:0.26458335" />
      <path
         inkscape:connector-curvature="0"
         id="path10089"
         d="m 66.011992,182.88515 c -0.0845,-0.21107 -0.14716,-0.14838 -0.15985,0.15985 -0.0115,0.27891 0.051,0.43518 0.13896,0.34726 0.0879,-0.0879 0.0973,-0.31612 0.0209,-0.50711 z"
         style="fill:#000000;stroke-width:0.26458335" />
      <path
         inkscape:connector-curvature="0"
         id="path10087"
         d="m 73.191009,182.20715 c -0.0482,-0.41912 -0.22706,-0.69852 -0.421817,-0.659 -0.5732,0.1163 -0.65803,-0.66206 -0.16341,-1.49939 0.452727,-0.76641 0.452047,-0.81726 -0.018,-1.33662 -0.58542,-0.64688 -1.79134,-0.7061 -2.28426,-0.11216 -0.20653,0.24885 -0.37226,1.16167 -0.3963,2.18281 l -0.0413,1.75509 0.95922,0.16089 c 0.52757,0.0885 1.29455,0.17779 1.7044,0.19844 0.664017,0.0334 0.736057,-0.0417 0.661447,-0.69006 z"
         style="fill:#ffffff;fill-opacity:1;stroke-width:0.26458335" />
    </g>
    <path
       style="fill:#00eefe;fill-opacity:1;stroke-width:0.15875001"
       d="m 106.97819,158.62918 c 2.27351,-0.69063 2.0517,-0.66751 2.60746,-0.27177 0.42924,0.30564 0.65759,0.35189 1.45334,0.29433 1.67711,-0.12131 2.28193,-0.91119 2.75354,-3.59605 0.28008,-1.59452 0.29034,-1.61717 0.92682,-2.04826 1.03874,-0.70353 1.30822,-1.18171 1.30347,-2.31287 -0.005,-1.18896 -0.29407,-1.68886 -1.32809,-2.29674 -0.71551,-0.42063 -0.80244,-0.43179 -3.96913,-0.50943 -4.18751,-0.10266 -4.70513,0.0395 -5.44887,1.49679 -0.36231,0.70992 -0.31588,1.5829 0.13443,2.52722 0.22134,0.46414 0.23293,0.60818 0.0652,0.81025 -0.47301,0.56994 -2.59117,-3.2e-4 -3.69067,-0.99367 -0.34461,-0.31133 -0.81405,-0.92779 -1.04319,-1.36989 -0.66582,-1.51586 -0.54991,-3.31121 0.12379,-4.44037 1.70957,-2.84974 4.95671,-3.23769 7.74033,-0.92476 1.04752,0.87039 1.32497,0.98943 2.30604,0.98943 0.69564,0 0.98037,-0.0874 1.49172,-0.4578 1.6327,-1.18272 1.51317,-2.97729 -0.31659,-4.75303 -1.78704,-1.73428 -2.3502,-2.09284 -4.32711,-2.75506 -2.6655,-0.64246 -4.8876,-0.61456 -7.60877,0.43131 -1.902208,0.73094 -3.968747,2.44338 -4.629841,3.83653 -0.239297,0.50428 -0.228703,0.5937 0.236537,1.99675 0.946152,2.85333 1.003396,5.48169 0.172574,7.92379 -0.444178,1.3056 -0.462331,2.02614 -0.06188,2.45636 2.452729,2.63511 3.491074,3.31639 6.12396,4.01813 1.37696,0.367 3.68636,0.34328 4.9849,-0.0512 z"
       id="path10085"
       inkscape:connector-curvature="0"
       sodipodi:nodetypes="ccsccccccscccccscscccsssscc" />
    <path
       style="fill:#00eefe;fill-opacity:1;stroke-width:0.15875001"
       d="m 72.998715,158.2028 c 0.824352,-0.54603 1.23387,-1.26775 1.23387,-2.17452 0,-1.02013 -0.82362,-1.99067 -3.539718,-4.17113 -0.922626,-0.74068 -1.167006,-1.32348 -0.627468,-1.49639 0.7365,-0.23602 2.043882,-1.79841 2.695026,-3.22069 0.74098,-2.03388 0.536508,-4.64085 -0.624426,-6.3637 -0.579042,-0.8417 -1.980336,-1.96567 -3.142164,-2.52031 -2.17562,-0.94617 -5.407087,-0.50622 -7.837907,-0.55416 -3.817224,0.0586 -7.031797,0.39462 -7.173283,0.44891 -0.27429,0.10526 -0.270426,0.1429 0.168348,1.64134 0.207342,0.70809 0.222996,1.02543 0.08281,1.67893 -0.215796,1.00592 -0.677562,1.88071 -1.28622,2.43662 l -0.46875,0.42815 0.401898,0.37756 c 0.61653,0.5792 1.147986,1.59084 1.313166,2.49965 0.280788,1.54488 -0.152832,2.89776 -1.290324,4.02578 -0.414078,0.41063 -0.417132,0.43147 -0.42879,2.92519 l -0.01176,2.51161 c 0.726943,1.78363 1.630991,1.81184 2.67447,1.84138 0.964644,0.011 1.662798,-0.38342 2.172552,-1.22735 0.417732,-0.69159 0.44358,-0.85056 0.520206,-3.1992 0.04434,-1.3593 0.12756,-2.51783 0.184914,-2.57452 0.619913,-0.66232 1.201624,-0.78323 2.206314,-0.30944 l 1.171482,0.84687 c 0.644316,0.46578 1.664028,1.20153 2.266032,1.635 0.602004,0.43348 1.173504,0.86285 1.270002,0.95416 0.0965,0.0913 0.879258,0.66282 1.739466,1.27001 0.860208,0.60718 1.854354,1.31256 2.209212,1.56751 1.831836,1.31612 2.933502,1.50932 4.121028,0.72274 z"
       id="path10083"
       inkscape:connector-curvature="0"
       sodipodi:nodetypes="cscccccccccccccscccccccccscccc" />
    <path
       style="fill:#000000;stroke-width:0.15875001"
       d="m 58.061815,144.55946 c 0.04302,-0.37442 0.148518,-0.75107 0.23445,-0.837 0.08701,-0.087 1.51623,-0.18432 3.22596,-0.21963 1.688346,-0.0349 3.40905,-0.0948 3.823782,-0.13331 0.414738,-0.0385 0.761124,-0.0197 0.769752,0.0417 0.07799,0.55461 0.05886,1.49424 -0.0315,1.55011 -0.06212,0.0384 -1.910178,0.11685 -4.106796,0.17436 l -3.993846,0.10455 z"
       id="path10081"
       inkscape:connector-curvature="0" />
    <path
       style="fill:#ffffff;fill-opacity:1;stroke-width:0.15875001"
       d="m 64.912165,144.23275 c 0.123204,-0.19935 -4.771668,-0.19627 -5.435904,0.004 -0.276168,0.083 0.637038,0.13754 2.447256,0.1461 1.820604,0.009 2.925078,-0.0467 2.988648,-0.1495 z"
       id="path10079"
       inkscape:connector-curvature="0" />
    <path
       style="fill:#00eefe;fill-opacity:1;stroke-width:0.15875001"
       d="m 128.52634,158.03667 c 1.0291,-0.35284 1.0906,-0.35654 1.63257,-0.0981 0.33903,0.16167 0.94998,0.26856 1.535,0.26856 0.79726,0 1.0672,-0.0728 1.5029,-0.40508 0.75836,-0.57842 0.97373,-1.10039 1.2417,-3.0094 0.13037,-0.92868 0.27865,-1.75585 0.32952,-1.83817 0.0509,-0.0823 0.33301,-0.25015 0.62697,-0.37298 0.71103,-0.29708 1.4978,-1.63935 1.43963,-2.45605 -0.0642,-0.90102 -0.54833,-1.74426 -1.26623,-2.20535 -0.64202,-0.41236 -0.69382,-0.41841 -4.11329,-0.48044 -3.01168,-0.0546 -3.55762,-0.0267 -4.18843,0.21419 -1.77543,0.86319 -1.91433,2.34201 -1.3965,3.63141 0.44126,1.09244 0.3456,1.36562 -0.4782,1.36562 -3.25127,-0.40199 -5.33224,-3.92631 -3.93993,-6.74687 0.90736,-1.53432 2.44439,-2.73292 4.2702,-2.77812 0.73895,0 2.48117,0.57278 2.88414,0.94821 0.38047,0.3131 0.8277,0.56565 1.14518,0.83088 0.8879,0.74544 1.50522,0.91379 2.44415,0.66651 0.8963,-0.23605 1.29145,-0.55257 1.70749,-1.36771 0.64619,-1.26611 0.2539,-2.49086 -1.3049,-4.07403 -2.47194,-2.51058 -6.90474,-3.5304 -10.25761,-2.35991 -1.516,0.52923 -3.59942,1.76045 -4.49009,2.65346 -1.34903,1.35259 -2.69827,3.80626 -2.94645,5.35829 -0.10193,0.63743 -0.0895,0.66055 0.52422,0.97364 1.21691,0.62082 2.1438,2.03865 2.34959,3.5941 0.11753,0.88834 -0.26448,2.23382 -0.8794,3.0974 l -0.34538,0.48504 0.39796,0.52175 c 1.02398,1.34251 3.01043,2.91297 4.28366,3.38662 1.54537,0.57488 2.24797,0.67774 4.23775,0.62038 1.54988,-0.0447 2.21853,-0.13749 3.05378,-0.42386 z"
       id="path10077"
       inkscape:connector-curvature="0"
       sodipodi:nodetypes="ccscsccsccccccccccsssccscsccccc" />
    <path
       style="fill:#00eefe;fill-opacity:1;stroke-width:0.15875001"
       d="m 160.76663,157.61509 c 0.85293,-0.49056 1.04344,-1.12342 1.26081,-4.18839 l 0.19575,-2.76018 1.16492,-0.0469 1.16491,-0.0469 1.69259,1.23755 c 1.8281,1.33663 3.29692,2.3667 3.91518,2.74567 0.21366,0.13097 1.36407,0.89892 2.55646,1.70656 2.01878,1.36738 2.22263,1.46844 2.96198,1.46844 0.94371,0 1.7528,-0.43701 2.11854,-1.14428 0.27872,-0.53898 0.32773,-1.6935 0.0907,-2.1364 -0.17407,-0.32527 -1.99245,-2.08846 -3.40184,-3.29861 -0.50204,-0.43107 -0.91281,-0.84068 -0.91281,-0.91025 0,-0.0696 0.28541,-0.30666 0.63426,-0.52687 2.06215,-1.30178 3.16339,-3.91596 2.72545,-6.46982 -0.25513,-1.48782 -0.78697,-2.538 -1.91765,-3.78663 -1.1881,-1.31205 -2.0737,-1.72834 -4.06144,-1.90917 -1.42003,-0.12918 -13.0898,-0.19796 -13.2099,-0.0779 -0.0346,0.0346 0.11789,0.5076 0.33877,1.0512 0.58628,1.44285 0.64017,1.92324 0.32292,2.87842 -0.18741,0.56422 -0.52379,1.08052 -1.04089,1.59763 l -0.76401,0.764 0.78772,1.04073 c 1.15946,1.53186 1.32057,1.90845 1.32,3.08541 -6e-4,1.2767 -0.3993,2.12017 -1.39581,2.95315 l -0.70588,0.59004 0.7663,0.85978 c 0.54831,0.61519 0.83903,1.11898 1.02198,1.771 0.33039,1.17753 0.32231,1.52015 -0.0622,2.63785 -0.17486,0.50821 -0.28733,0.95461 -0.24994,0.992 0.0374,0.0374 0.33568,0.16001 0.66288,0.27249 0.65069,0.2237 1.18391,0.13142 2.02028,-0.34962 z"
       id="path10075"
       inkscape:connector-curvature="0" />
    <path
       style="fill:#000000;stroke-width:0.15875001"
       d="m 166.46225,144.91193 -4.17469,-0.0451 0.0472,-0.98953 0.0472,-0.98953 h 4.60374 4.60375 l 0.0484,0.84632 c 0.0538,0.939 -0.14499,1.31653 -0.66318,1.25986 -0.18576,-0.0203 -2.21636,-0.0572 -4.51244,-0.082 z"
       id="path10073"
       inkscape:connector-curvature="0" />
    <path
       style="fill:#000000;stroke-width:0.15875001"
       d="m 166.36274,143.87996 c 0.0661,-0.0655 -0.58818,-0.11061 -1.45402,-0.10028 -0.88343,0.0106 -1.36528,0.0628 -1.09803,0.11907 0.65936,0.13883 2.40584,0.12598 2.55205,-0.0188 z"
       id="path10071"
       inkscape:connector-curvature="0" />
    <path
       style="fill:#ffffff;fill-opacity:1;stroke-width:0.15875001"
       d="m 167.68684,143.81794 c 0.0364,-0.0314 -0.20001,-0.0571 -0.52531,-0.0571 -0.35532,0 -0.55214,0.0636 -0.49298,0.15933 0.085,0.13746 0.82669,0.063 1.01829,-0.10229 z"
       id="path10069"
       inkscape:connector-curvature="0" />
    <path
       style="fill:#00eefe;fill-opacity:1;stroke-width:0.15875001"
       d="m 151.98382,157.79487 c 2.75829,-0.0844 2.97288,-0.11321 3.52905,-0.47397 1.59483,-1.28361 1.50864,-3.11555 0.033,-4.29156 -0.74403,-0.84435 -4.77324,-0.38497 -7.16103,-0.50414 l -6.56101,-0.0463 v -0.85713 c 0,-0.51138 0.08,-0.90894 0.19844,-0.98557 0.10914,-0.0706 3.02022,-0.16415 6.46906,-0.2078 5.57651,-0.0706 6.32683,-0.11011 6.77836,-0.35703 1.05135,-0.57492 1.68877,-1.95117 1.41285,-3.05052 -0.15282,-0.60889 -1.14451,-1.62597 -1.812,-1.85838 -0.43635,-0.15193 -2.1567,-0.20456 -6.77609,-0.20729 l -6.19125,-0.004 0.034,-0.93357 c 0.0187,-0.51346 0.0781,-0.97781 0.132,-1.03187 0.0539,-0.0541 2.8604,-0.13511 6.23664,-0.1801 5.35437,-0.0713 6.21667,-0.11677 6.74953,-0.3556 0.93358,-0.41843 1.67596,-1.4355 1.68534,-2.30892 0.0116,-1.07886 -0.97308,-2.27809 -2.12894,-2.59282 -0.68625,-0.18688 -16.58323,-0.0807 -17.43552,0.11641 -0.58409,0.13511 -1.54366,1.26547 -1.54366,1.81842 0,0.23535 0.17859,0.83175 0.39688,1.32532 0.53757,1.21555 0.52017,2.1353 -0.0637,3.36954 -0.25319,0.53519 -0.53888,1.0216 -0.63488,1.08093 -0.38928,0.24059 -0.15345,0.6527 0.55065,0.96226 1.67275,0.73542 2.67474,2.27122 2.65191,4.06474 -0.0166,1.29953 -0.38542,2.07981 -1.40931,2.98107 -1.12022,0.9501 -1.24877,3.82968 -0.38028,4.43294 1.43053,0.88308 4.64103,0.31364 6.42938,0.28349 3.23056,-0.0545 7.19534,-0.13946 8.81062,-0.18889 z"
       id="path10067"
       inkscape:connector-curvature="0"
       sodipodi:nodetypes="ccccccssscccccccsccccsccccccccc" />
    <path
       style="fill:#000000;stroke-width:0.15875001"
       d="m 135.45799,154.80725 c 0.0221,-1.31029 -0.0825,-1.05575 -0.19025,0.46302 -0.0541,0.76286 -0.0373,1.11152 0.0422,0.87313 0.0727,-0.21829 0.13938,-0.81956 0.14808,-1.33615 z"
       id="path10065"
       inkscape:connector-curvature="0" />
    <path
       style="fill:#000000;stroke-width:0.15875001"
       d="m 136.82319,152.49214 c 0.15803,-0.17462 0.25162,-0.3175 0.20796,-0.3175 -0.0437,0 -0.20867,0.14288 -0.36671,0.3175 -0.15803,0.17463 -0.25161,0.31751 -0.20796,0.31751 0.0437,0 0.20868,-0.14288 0.36671,-0.31751 z"
       id="path10061"
       inkscape:connector-curvature="0" />
    <path
       style="fill:#000000;stroke-width:0.15875001"
       d="m 157.70842,139.5271 c -0.062,-0.33891 -0.20204,-0.75726 -0.31125,-0.92965 -0.19657,-0.31029 -0.19742,-0.31025 -0.0839,0.004 0.0631,0.17462 0.15092,0.78184 0.19526,1.34937 0.0626,0.80052 0.10662,0.93777 0.19661,0.61216 0.0638,-0.23085 0.0653,-0.69701 0.003,-1.03593 z"
       id="path10051"
       inkscape:connector-curvature="0" />
    <path
       style="fill:#000000;stroke-width:0.15875001"
       d="m 33.153139,159.14941 c -0.705432,-0.20514 -1.745244,-1.16084 -2.02575,-1.86189 -0.191562,-0.47875 -0.262884,-1.61082 -0.332778,-5.28207 -0.0489,-2.56999 -0.135414,-5.82543 -0.19218,-7.23431 -0.137898,-3.42221 -0.01848,-4.45561 0.625092,-5.4101 0.3312,-0.49119 0.768588,-0.88188 1.27974,-1.14311 0.918564,-0.46943 2.19549,-0.55797 10.335936,-0.71664 2.793996,-0.0545 5.483532,-0.13998 5.976732,-0.19003 1.218882,-0.12371 2.449308,0.24467 3.094968,0.92662 0.724086,0.76478 0.850176,1.10061 0.850176,2.2645 0,1.23407 -0.364764,2.08466 -1.149474,2.68041 -1.066212,0.80948 -1.44285,0.86276 -6.788028,0.96043 -2.750346,0.0503 -5.339952,0.0919 -5.75469,0.0926 -0.705966,0.001 -0.754062,0.0276 -0.754062,0.41413 v 0.41286 l 6.151566,-0.0532 c 5.860656,-0.0506 6.174084,-0.0386 6.62781,0.25379 0.576678,0.37165 0.851202,0.64326 1.314,1.30001 0.281766,0.39985 0.35274,0.71974 0.352194,1.5875 -6e-4,0.92192 -0.06749,1.18745 -0.441228,1.75073 -0.56337,0.84909 -1.038786,1.21771 -1.984578,1.53877 -0.646254,0.21939 -1.623456,0.25787 -6.548436,0.25787 h -5.788824 v 2.03493 c 0,1.40007 -0.07896,2.30082 -0.253086,2.88716 -0.435002,1.83644 -2.147575,3.25031 -4.5951,2.52895 z"
       id="path10049"
       inkscape:connector-curvature="0"
       sodipodi:nodetypes="cccccccccscccscccccccscsccc" />
    <path
       style="fill:#00eefe;fill-opacity:1;stroke-width:0.15875001"
       d="m 35.411299,158.35529 c 1.25997,-0.47739 1.629444,-1.47815 1.772058,-4.79978 l 0.10359,-2.41277 6.19125,-0.0794 c 6.0102,-0.077 6.212352,-0.0898 6.912948,-0.43505 1.49562,-0.73711 1.891656,-2.9083 0.75234,-4.12458 -0.502392,-0.53633 -1.82352,-0.85717 -3.17691,-0.77152 -0.635046,0.0402 -3.262032,0.0856 -5.837754,0.10102 l -4.683126,0.028 -0.04176,-1.12952 -0.04176,-1.12953 1.946784,-0.0248 c 1.07073,-0.0136 2.125374,-0.0409 2.343654,-0.0605 0.218286,-0.0196 1.861344,-0.0472 3.651252,-0.0611 4.27647,-0.0335 5.08518,-0.1712 5.892996,-1.00359 0.591354,-0.60936 0.615756,-0.67685 0.615756,-1.70313 0,-1.25033 -0.37338,-1.96515 -1.273164,-2.43744 -0.514314,-0.26996 -0.908718,-0.28299 -5.711838,-0.18885 -7.431624,0.14566 -10.952736,0.32844 -11.608896,0.6026 -0.713346,0.29806 -1.353,1.06836 -1.583976,1.90751 -0.134526,0.48874 -0.152934,2.51661 -0.06874,7.57309 0.06323,3.79809 0.104922,7.24193 0.09263,7.65299 -0.03306,1.10505 0.595782,2.09483 1.580316,2.48741 0.533208,0.21262 1.623102,0.21715 2.172396,0.009 z"
       id="path10045"
       inkscape:connector-curvature="0" />
  </g>
</svg>
