<?xml version="1.0" encoding="UTF-8" standalone="no"?>
<svg
   height="1920"
   width="1080"
   version="1.1"
   viewBox="0 0 285.77009 508.01454"
   id="svg174"
   sodipodi:docname="splash.svg"
   inkscape:version="1.2.2 (b0a8486541, 2022-12-01)"
   xmlns:inkscape="http://www.inkscape.org/namespaces/inkscape"
   xmlns:sodipodi="http://sodipodi.sourceforge.net/DTD/sodipodi-0.dtd"
   xmlns="http://www.w3.org/2000/svg"
   xmlns:svg="http://www.w3.org/2000/svg">
  <defs
     id="defs178" />
  <sodipodi:namedview
     id="namedview176"
     pagecolor="#ffffff"
     bordercolor="#000000"
     borderopacity="0.25"
     inkscape:showpageshadow="2"
     inkscape:pageopacity="0.0"
     inkscape:pagecheckerboard="0"
     inkscape:deskcolor="#d1d1d1"
     showgrid="false"
     inkscape:zoom="0.28426911"
     inkscape:cx="-68.59697"
     inkscape:cy="693.00529"
     inkscape:window-width="1857"
     inkscape:window-height="1170"
     inkscape:window-x="63"
     inkscape:window-y="30"
     inkscape:window-maximized="1"
     inkscape:current-layer="svg174" />
  <path
     style="fill:#a8b2b8;fill-rule:evenodd;stroke-width:0"
     d="m 147.47369,140.55508 0.0189,133.85079 c 5.87445,7.12992 71.68765,8.3541 79.15201,-0.38518 l -0.23922,-133.08941 c -7.38522,-9.31401 -73.49402,-9.08412 -78.92807,-0.38486 z"
     id="path2" />
  <path
     style="fill:#34495e;fill-rule:evenodd;stroke-width:0"
     d="m 147.47369,142.10767 0.0189,131.20839 c 5.87893,6.98812 71.73243,8.18841 79.21172,-0.37754 l -0.2393,-130.46197 c -7.38971,-9.1304 -73.55374,-8.90498 -78.98779,-0.37724 z"
     id="path4" />
  <path
     style="fill:#001424;fill-rule:evenodd;stroke-width:0"
     d="m 148.96656,250.07207 v 10.35156 l 76.01697,-0.20904 0.0496,-9.93358 z"
     id="path6" />
  <path
     style="fill:#001424;fill-rule:evenodd;stroke-width:0"
     d="m 148.96656,150.19902 v 4.61446 l 75.80797,-0.0356 0.0496,-4.40994 z"
     id="path8" />
  <ellipse
     style="fill:#2980b9;fill-rule:evenodd;stroke-width:0;stroke-miterlimit:2.013"
     rx="1.5272067pt"
     ry="1.6048359pt"
     cy="143.18253"
     cx="217.48932"
     stroke-miterlimit="2.013"
     id="ellipse10" />
  <path
     style="fill:#001424;fill-rule:evenodd;stroke-width:0"
     d="m 177.48039,135.8376 c 6.40142,-0.19675 12.76852,-0.24587 19.0341,0.10282 l -3.19176,2.56774 -12.68642,-0.0546 z"
     id="path12" />
  <path
     style="color:#000000;isolation:auto;mix-blend-mode:normal;solid-color:#000000;fill:#12baf4;stroke-width:1.49287;color-rendering:auto;image-rendering:auto;shape-rendering:auto"
     d="m 148.96656,224.69327 h 75.76318 v 24.69207 h -75.83783 z"
     id="path14" />
  <path
     style="color:#000000;isolation:auto;mix-blend-mode:normal;solid-color:#000000;fill:#12baf4;stroke-width:1.49287;color-rendering:auto;image-rendering:auto;shape-rendering:auto"
     d="m 148.96656,155.648 h 75.76318 v 24.69208 h -75.83783 z"
     id="path16" />
  <path
     style="color:#000000;isolation:auto;mix-blend-mode:normal;solid-color:#000000;fill:#00be6b;stroke-width:1.49287;color-rendering:auto;image-rendering:auto;shape-rendering:auto"
     d="m 148.96656,181.1313 h 37.38148 v 42.77074 h -37.32177 z"
     id="path18" />
  <rect
     style="color:#000000;isolation:auto;mix-blend-mode:normal;solid-color:#000000;fill:#00be6b;stroke-width:1.49287;color-rendering:auto;image-rendering:auto;shape-rendering:auto"
     height="42.770744"
     width="37.381481"
     y="181.1313"
     x="187.33334"
     id="rect20" />
  <path
     style="color:#000000;isolation:auto;mix-blend-mode:normal;solid-color:#000000;fill:#74787a;stroke-width:0.302306;color-rendering:auto;image-rendering:auto;shape-rendering:auto"
     d="m 193.40185,117.73692 -13.15334,-7.59393 v 15.18787 z"
     id="path22" />
  <path
     style="stroke-width:1.83773"
     d="m 194.49911,210.09299 c -0.66925,0 -1.31268,-0.3659 -1.63767,-1.00007 -0.87334,-1.70486 -1.31448,-3.53363 -1.31448,-5.43406 0,-1.90042 0.44129,-3.73067 1.31448,-5.43403 0.46144,-0.90274 1.57049,-1.26119 2.47517,-0.79793 0.90454,0.46322 1.26118,1.57049 0.79973,2.47516 -0.6067,1.18027 -0.91184,2.44532 -0.91184,3.75757 0,1.31265 0.30514,2.57818 0.91005,3.75754 0.46145,0.90273 0.10481,2.01089 -0.79973,2.4752 -0.26663,0.1379 -0.55341,0.20215 -0.83466,0.20215 z"
     id="path24" />
  <path
     style="stroke-width:1.83773"
     d="m 218.38504,210.09299 c -0.28126,0 -0.56803,-0.0643 -0.83466,-0.20241 -0.90453,-0.46145 -1.26298,-1.5705 -0.80153,-2.47219 0.60492,-1.18399 0.91185,-2.44833 0.91185,-3.75905 0,-1.31074 -0.30693,-2.57519 -0.91185,-3.75904 -0.46145,-0.90454 -0.10481,-2.01092 0.80153,-2.47221 0.89722,-0.46324 2.0109,-0.10658 2.47518,0.79974 0.87333,1.70635 1.31447,3.53361 1.31447,5.43256 0,1.89892 -0.4413,3.72619 -1.31447,5.43256 -0.32545,0.63611 -0.97246,1.002 -1.63917,1.002 z"
     id="path26" />
  <path
     style="stroke-width:1.83773"
     d="m 224.95367,255.99876 h -20.27318 c -2.41397,0 -4.67716,-1.18578 -6.05209,-3.17084 l -14.20019,-20.51206 c -0.67284,-0.9744 -1.0259,-2.1124 -1.0259,-3.29326 0,-2.20945 1.22803,-4.19498 3.2037,-5.18475 1.56154,-0.77957 3.43658,-0.55893 4.76822,0.56626 l 6.92543,5.82367 c 0.32545,0.28305 0.75002,0.3365 1.10682,0.15805 0.33276,-0.16748 0.54057,-0.5019 0.54057,-0.87511 V 203.6542 c 0,-3.54856 2.88571,-6.43428 6.43427,-6.43428 3.54855,0 6.43426,2.88572 6.43426,6.43428 v 15.19743 c 0,0.43753 0.31262,0.81987 0.74271,0.90629 l 12.90736,2.5812 c 2.74241,0.54593 4.73389,2.97529 4.73389,5.77292 l -0.0349,0.92662 -1.62722,22.73642 c -0.16737,2.39308 -2.18258,4.26962 -4.58163,4.26962 z"
     id="path28" />
  <path
     style="fill:#ffffff;stroke-width:1.83773"
     d="m 188.52763,227.11172 -0.31067,0.0737 c -0.72255,0.36215 -1.17115,1.0883 -1.17115,1.89594 0,0.43204 0.12868,0.84749 0.375,1.20235 l 14.1987,20.49713 c 0.68567,0.99649 1.81832,1.58841 3.02605,1.58841 h 20.27318 c 0.47981,0 0.88244,-0.37321 0.91737,-0.85302 l 1.62723,-22.75136 0.024,-0.65821 c 0,-1.05158 -0.74644,-1.96311 -1.77801,-2.16915 l -12.90736,-2.58116 c -2.14377,-0.42832 -3.69933,-2.32588 -3.69933,-4.50997 v -15.19741 c 0,-1.51976 -1.23729,-2.75735 -2.75733,-2.75735 -1.52004,0 -2.75734,1.23731 -2.75734,2.75735 v 25.91622 c 0,1.77653 -0.98723,3.3724 -2.57371,4.16661 -1.69739,0.84392 -3.71128,0.58639 -5.13846,-0.65073 l -6.90304,-5.80729 c -0.13046,-0.10834 -0.28871,-0.16545 -0.4486,-0.16545 z"
     id="path30" />
  <path
     style="color:#000000;isolation:auto;mix-blend-mode:normal;solid-color:#000000;fill:#74787a;stroke-width:0.302306;color-rendering:auto;image-rendering:auto;shape-rendering:auto"
     d="m 93.931881,117.73692 13.153349,-7.59393 v 15.18787 z"
     id="path32" />
  <path
     style="fill:#a8b2b8;fill-rule:evenodd;stroke-width:0"
     d="m 58.573239,139.34586 0.01886,133.85077 c 5.874445,7.12996 71.687651,8.35411 79.152011,-0.38515 L 137.5048,139.72205 c -7.31506,-9.21101 -73.464167,-8.98708 -78.898217,-0.28364 z"
     id="path34" />
  <path
     style="fill:#34495e;fill-rule:evenodd;stroke-width:0"
     d="m 58.543383,140.89844 0.01886,131.20839 c 5.878925,6.98814 71.732437,8.18841 79.211717,-0.37753 l -0.23921,-130.46197 c -7.31507,-9.06173 -73.494026,-8.8378 -78.928075,-0.3135 z"
     id="path36" />
  <path
     style="fill:#001424;fill-rule:evenodd;stroke-width:0"
     d="m 60.081039,248.86283 v 10.35157 l 76.016971,-0.20904 0.0496,-9.93356 z"
     id="path38" />
  <path
     style="fill:#001424;fill-rule:evenodd;stroke-width:0"
     d="m 60.051181,148.9898 v 4.61446 l 75.807979,-0.0356 0.0496,-4.40994 z"
     id="path40" />
  <ellipse
     style="fill:#2980b9;fill-rule:evenodd;stroke-width:0;stroke-miterlimit:2.013"
     rx="1.5272067pt"
     ry="1.6048359pt"
     cy="141.97331"
     cx="128.66353"
     stroke-miterlimit="2.013"
     id="ellipse42" />
  <path
     style="fill:#001424;fill-rule:evenodd;stroke-width:0"
     d="m 88.669511,134.64331 c 6.40143,-0.19675 12.768529,-0.24573 19.034099,0.10282 l -3.19176,2.56773 -12.686411,-0.0544 z"
     id="path44" />
  <path
     style="color:#000000;isolation:auto;mix-blend-mode:normal;solid-color:#000000;fill:#12baf4;stroke-width:1.49287;color-rendering:auto;image-rendering:auto;shape-rendering:auto"
     d="m 60.095967,223.48403 h 75.733323 v 24.6921 H 60.095967 Z"
     id="path46" />
  <path
     style="color:#000000;isolation:auto;mix-blend-mode:normal;solid-color:#000000;fill:#12baf4;stroke-width:1.49287;color-rendering:auto;image-rendering:auto;shape-rendering:auto"
     d="m 60.095967,154.43877 h 75.733323 v 24.69209 H 60.095967 Z"
     id="path48" />
  <path
     style="color:#000000;isolation:auto;mix-blend-mode:normal;solid-color:#000000;fill:#00be6b;stroke-width:1.49287;color-rendering:auto;image-rendering:auto;shape-rendering:auto"
     d="m 60.110896,179.92207 h 37.366551 v 42.77074 H 60.110896 Z"
     id="path50" />
  <rect
     style="color:#000000;isolation:auto;mix-blend-mode:normal;solid-color:#000000;fill:#00be6b;stroke-width:1.49287;color-rendering:auto;image-rendering:auto;shape-rendering:auto"
     height="42.770744"
     width="37.381481"
     y="179.92209"
     x="98.492599"
     id="rect52" />
  <path
     style="stroke-width:1.83773"
     d="m 65.619589,208.88376 c -0.669253,0 -1.312681,-0.3659 -1.637678,-1.00007 -0.87333,-1.70484 -1.314473,-3.53361 -1.314473,-5.43403 0,-1.90044 0.441291,-3.73071 1.314473,-5.43407 0.461446,-0.90274 1.570499,-1.26117 2.475179,-0.79793 0.90453,0.46323 1.261175,1.57049 0.799731,2.47516 -0.606702,1.18028 -0.911846,2.44534 -0.911846,3.75758 0,1.31268 0.305144,2.57818 0.910054,3.75754 0.461447,0.90275 0.104776,2.01091 -0.79973,2.47519 -0.266627,0.13791 -0.553408,0.20241 -0.834665,0.20241 z"
     id="path54" />
  <path
     style="stroke-width:1.83773"
     d="m 89.505519,208.88376 c -0.281257,0 -0.568038,-0.0643 -0.834664,-0.20216 -0.90453,-0.46145 -1.262969,-1.57053 -0.801523,-2.47222 0.604913,-1.184 0.911847,-2.44829 0.911847,-3.75904 0,-1.31075 -0.307084,-2.5752 -0.911847,-3.75904 -0.461446,-0.90455 -0.104775,-2.01089 0.801523,-2.47219 0.897216,-0.46326 2.010897,-0.10658 2.47518,0.79972 0.873329,1.70634 1.314474,3.53363 1.314474,5.43256 0,1.89892 -0.441295,3.72621 -1.314474,5.43255 -0.325446,0.6361 -0.972607,1.00201 -1.639173,1.00201 z"
     id="path56" />
  <path
     style="stroke-width:1.83773"
     d="M 96.13386,254.84926 H 75.860681 c -2.413971,0 -4.677164,-1.18579 -6.052096,-3.17087 L 55.596457,231.16636 c -0.672838,-0.9744 -1.025903,-2.11241 -1.025903,-3.29327 0,-2.20945 1.228037,-4.19498 3.203701,-5.18475 1.561542,-0.77941 3.436588,-0.55893 4.768228,0.56626 l 6.925429,5.82367 c 0.325443,0.28305 0.750017,0.33651 1.106814,0.15806 0.33276,-0.16724 0.540567,-0.50191 0.540567,-0.87512 v -25.91625 c 0,-3.54855 2.88572,-6.43426 6.434273,-6.43426 3.548552,0 6.434272,2.88571 6.434272,6.43426 v 15.19743 c 0,0.43756 0.312608,0.81988 0.742703,0.90633 l 12.907358,2.58116 c 2.742411,0.54594 4.733891,2.9753 4.733891,5.77292 l -0.0349,0.92664 -1.62722,22.7364 c -0.16734,2.39308 -2.182584,4.26963 -4.581629,4.26963 z"
     id="path58" />
  <path
     style="fill:#ffffff;stroke-width:1.83773"
     d="m 59.737679,225.91742 -0.310666,0.0737 c -0.72255,0.36215 -1.171158,1.08829 -1.171158,1.89594 0,0.43202 0.128688,0.84748 0.375009,1.20235 l 14.198694,20.49711 c 0.685675,0.99651 1.818316,1.58843 3.026047,1.58843 H 96.12879 c 0.479803,0 0.882439,-0.37323 0.917372,-0.85303 l 1.627224,-22.75136 0.02397,-0.65821 c 0,-1.05159 -0.74643,-1.9631 -1.778009,-2.16914 l -12.898401,-2.58264 c -2.149734,-0.43295 -3.70232,-2.32889 -3.70232,-4.50848 v -15.21235 c 0,-1.51974 -1.237293,-2.75732 -2.757331,-2.75732 -1.520041,0 -2.757334,1.23728 -2.757334,2.75732 v 25.91624 c 0,1.77651 -0.987234,3.3724 -2.573707,4.16661 -1.697395,0.84389 -3.711277,0.58639 -5.13846,-0.65076 l -6.903036,-5.80726 c -0.130525,-0.10856 -0.288571,-0.16545 -0.448605,-0.16545 z"
     id="path60" />
  <path
     style="color:#000000;isolation:auto;mix-blend-mode:normal;solid-color:#000000;fill:#74787a;stroke-width:1.49287;color-rendering:auto;image-rendering:auto;shape-rendering:auto"
     d="m 185.24331,314.66858 -7.59423,-13.15368 h 15.18249 z"
     id="path62" />
  <path
     style="fill:#a8b2b8;fill-rule:evenodd;stroke-width:0"
     d="m 147.62297,329.74658 0.0189,133.85078 c 5.87445,7.12994 71.68764,8.35409 79.152,-0.38516 l -0.2393,-133.08943 c -7.38523,-9.31402 -73.49402,-9.0841 -78.92807,-0.38486 z"
     id="path64" />
  <path
     style="fill:#34495e;fill-rule:evenodd;stroke-width:0"
     d="m 147.62297,331.23945 0.0189,131.20838 c 5.87892,6.98814 71.73244,8.18841 79.21172,-0.37752 l -0.23933,-130.46198 c -7.38971,-9.1304 -73.55373,-8.90497 -78.98778,-0.37724 z"
     id="path66" />
  <path
     style="fill:#001424;fill-rule:evenodd;stroke-width:0"
     d="m 149.11584,439.17399 v 10.35156 l 76.01698,-0.20904 0.0496,-9.93356 z"
     id="path68" />
  <path
     style="fill:#001424;fill-rule:evenodd;stroke-width:0"
     d="m 149.11584,339.30095 v 4.61446 l 75.80797,-0.0357 0.0496,-4.40994 z"
     id="path70" />
  <ellipse
     style="fill:#2980b9;fill-rule:evenodd;stroke-width:0;stroke-miterlimit:2.013"
     rx="1.5272067pt"
     ry="1.6048359pt"
     cy="332.28436"
     cx="217.63861"
     stroke-miterlimit="2.013"
     id="ellipse72" />
  <path
     style="fill:#001424;fill-rule:evenodd;stroke-width:0"
     d="m 177.77896,324.96938 c 6.40143,-0.19679 12.76853,-0.24574 19.0341,0.10271 l -3.19175,2.56774 -12.68642,-0.0546 z"
     id="path74" />
  <path
     style="color:#000000;isolation:auto;mix-blend-mode:normal;solid-color:#000000;fill:#12baf4;stroke-width:1.49287;color-rendering:auto;image-rendering:auto;shape-rendering:auto"
     d="m 149.11584,413.79519 h 75.76319 v 24.69207 h -75.68854 z"
     id="path76" />
  <path
     style="color:#000000;isolation:auto;mix-blend-mode:normal;solid-color:#000000;fill:#12baf4;stroke-width:1.49287;color-rendering:auto;image-rendering:auto;shape-rendering:auto"
     d="m 149.11584,344.82456 h 75.76319 v 24.69208 h -75.68854 z"
     id="path78" />
  <path
     style="color:#000000;isolation:auto;mix-blend-mode:normal;solid-color:#000000;fill:#00be6b;stroke-width:1.49287;color-rendering:auto;image-rendering:auto;shape-rendering:auto"
     d="m 149.11584,370.35265 h 37.38148 v 42.77075 h -37.32176 z"
     id="path80" />
  <rect
     style="color:#000000;isolation:auto;mix-blend-mode:normal;solid-color:#000000;fill:#00be6b;stroke-width:1.49287;color-rendering:auto;image-rendering:auto;shape-rendering:auto"
     height="42.770744"
     width="37.381481"
     y="370.3526"
     x="187.48264"
     id="rect82" />
  <path
     style="stroke-width:1.83773"
     d="m 172.40463,434.3968 c -0.66926,0 -1.31269,-0.3659 -1.63769,-1.00007 -0.87332,-1.70486 -1.31447,-3.53363 -1.31447,-5.43405 0,-1.90043 0.44129,-3.73068 1.31447,-5.43404 0.46145,-0.90273 1.57051,-1.26119 2.47519,-0.79793 0.90452,0.46323 1.26117,1.5705 0.79973,2.47516 -0.6067,1.18027 -0.91185,2.44532 -0.91185,3.75757 0,1.31267 0.30515,2.57818 0.91006,3.75754 0.46144,0.90259 0.10481,2.01089 -0.79973,2.4752 -0.26663,0.13766 -0.55341,0.20215 -0.83466,0.20215 z"
     id="path84" />
  <path
     style="stroke-width:1.83773"
     d="m 196.29056,434.3968 c -0.28126,0 -0.56805,-0.0643 -0.83466,-0.20241 -0.90454,-0.46145 -1.26298,-1.57049 -0.80153,-2.47218 0.60491,-1.184 0.91185,-2.44832 0.91185,-3.75906 0,-1.31074 -0.30709,-2.57519 -0.91185,-3.75904 -0.46145,-0.90454 -0.10481,-2.01091 0.80153,-2.47221 0.89721,-0.46323 2.01088,-0.10658 2.47517,0.79974 0.87333,1.70635 1.31447,3.53362 1.31447,5.43256 0,1.89892 -0.44129,3.72619 -1.31447,5.43257 -0.32544,0.6361 -0.9726,1.002 -1.63917,1.002 z"
     id="path86" />
  <path
     style="stroke-width:1.83773"
     d="m 202.85919,480.37722 h -20.30304 c -2.41398,0 -4.67717,-1.18578 -6.0521,-3.17084 l -14.20019,-20.51207 c -0.67284,-0.97439 -1.0259,-2.11239 -1.0259,-3.29326 0,-2.20946 1.22803,-4.19497 3.2037,-5.18474 1.56155,-0.77957 3.43659,-0.55893 4.76823,0.56626 l 6.92543,5.82367 c 0.32544,0.28305 0.75002,0.3365 1.10681,0.15805 0.33276,-0.16748 0.54043,-0.5019 0.54043,-0.87513 v -25.97594 c 0,-3.54855 2.88571,-6.43429 6.43427,-6.43429 3.54855,0 6.43427,2.88574 6.43427,6.43429 v 15.19742 c 0,0.43757 0.3126,0.81989 0.7427,0.90631 l 12.90736,2.58119 c 2.7424,0.54609 4.73389,2.97529 4.73389,5.77292 l -0.0349,0.92662 -1.62723,22.73643 c -0.16736,2.39308 -2.18258,4.26961 -4.58162,4.26961 z"
     id="path88" />
  <path
     style="fill:#ffffff;stroke-width:1.83773"
     d="m 166.43314,451.41553 -0.31066,0.0737 c -0.72255,0.36218 -1.17101,1.0883 -1.17101,1.89594 0,0.43204 0.12869,0.84752 0.37501,1.20235 l 14.19869,20.49713 c 0.68583,0.99649 1.81832,1.58841 3.02605,1.58841 h 20.27318 c 0.47982,0 0.88244,-0.37321 0.91737,-0.85302 l 1.62723,-22.75136 0.024,-0.6582 c 0,-1.05157 -0.74643,-1.96312 -1.77801,-2.16913 l -12.90735,-2.58119 c -2.14376,-0.42829 -3.69933,-2.32588 -3.69933,-4.50994 v -15.078 c 0,-1.51974 -1.2373,-2.75735 -2.75734,-2.75735 -1.52004,0 -2.75733,1.2373 -2.75733,2.75735 v 25.91623 c 0,1.77652 -0.98724,3.37238 -2.57371,4.16659 -1.69739,0.84377 -3.71127,0.58642 -5.13847,-0.65089 l -6.90302,-5.80725 c -0.13048,-0.10856 -0.28858,-0.16545 -0.44862,-0.16545 z"
     id="path90" />
  <path
     style="color:#000000;isolation:auto;mix-blend-mode:normal;solid-color:#000000;fill:#74787a;stroke-width:1.49287;color-rendering:auto;image-rendering:auto;shape-rendering:auto"
     d="M 98.865819,301.53131 91.271586,314.685 h 15.182504 z"
     id="path92" />
  <path
     style="fill:#a8b2b8;fill-rule:evenodd;stroke-width:0"
     d="m 59.274889,329.74658 0.01886,133.85078 c 5.874446,7.12994 71.687661,8.35409 79.152001,-0.38516 l -0.2393,-133.08943 c -7.38523,-9.31402 -73.494024,-9.0841 -78.928073,-0.38486 z"
     id="path94" />
  <path
     style="fill:#34495e;fill-rule:evenodd;stroke-width:0"
     d="m 59.245031,331.23945 0.01886,131.20838 c 5.878925,6.98814 71.732439,8.18841 79.211729,-0.37752 l -0.23931,-130.46198 c -7.38971,-9.1304 -73.55374,-8.90497 -78.987789,-0.37724 z"
     id="path96" />
  <path
     style="fill:#001424;fill-rule:evenodd;stroke-width:0"
     d="m 60.782689,439.17399 v 10.35156 l 76.016981,-0.20904 0.0496,-9.93356 z"
     id="path98" />
  <path
     style="fill:#001424;fill-rule:evenodd;stroke-width:0"
     d="m 60.752831,339.30095 v 4.61446 l 75.807969,-0.0357 0.0496,-4.40994 z"
     id="path100" />
  <ellipse
     style="fill:#2980b9;fill-rule:evenodd;stroke-width:0;stroke-miterlimit:2.013"
     rx="1.5272067pt"
     ry="1.6048359pt"
     cy="332.28436"
     cx="129.26068"
     stroke-miterlimit="2.013"
     id="ellipse102" />
  <path
     style="fill:#001424;fill-rule:evenodd;stroke-width:0"
     d="m 89.371161,324.96938 c 6.401433,-0.19679 12.768529,-0.24574 19.034109,0.10271 l -3.19176,2.56774 -12.686422,-0.0546 z"
     id="path104" />
  <path
     style="color:#000000;isolation:auto;mix-blend-mode:normal;solid-color:#000000;fill:#12baf4;stroke-width:1.49287;color-rendering:auto;image-rendering:auto;shape-rendering:auto"
     d="M 60.797617,413.79519 H 136.5608 v 24.69207 H 60.767759 Z"
     id="path106" />
  <path
     style="color:#000000;isolation:auto;mix-blend-mode:normal;solid-color:#000000;fill:#12baf4;stroke-width:1.49287;color-rendering:auto;image-rendering:auto;shape-rendering:auto"
     d="M 60.797617,344.82456 H 136.5608 v 24.69208 H 60.767759 Z"
     id="path108" />
  <path
     style="color:#000000;isolation:auto;mix-blend-mode:normal;solid-color:#000000;fill:#00be6b;stroke-width:1.49287;color-rendering:auto;image-rendering:auto;shape-rendering:auto"
     d="M 60.812545,370.35265 H 98.179093 V 413.1234 H 60.812545 Z"
     id="path110" />
  <rect
     style="color:#000000;isolation:auto;mix-blend-mode:normal;solid-color:#000000;fill:#00be6b;stroke-width:1.49287;color-rendering:auto;image-rendering:auto;shape-rendering:auto"
     height="42.770744"
     width="37.381481"
     y="370.3526"
     x="99.194252"
     id="rect112" />
  <path
     style="stroke-width:1.83773"
     d="m 84.011755,362.44044 c -0.669252,0 -1.31268,-0.3659 -1.637678,-1.00007 -0.87333,-1.70486 -1.314474,-3.53363 -1.314474,-5.43405 0,-1.90044 0.441292,-3.73069 1.314474,-5.43405 0.461446,-0.9026 1.570499,-1.26119 2.47518,-0.79793 0.90453,0.46324 1.261175,1.57049 0.799731,2.47516 -0.606703,1.18028 -0.911847,2.44532 -0.911847,3.75758 0,1.31265 0.305144,2.57818 0.910055,3.75754 0.461446,0.90258 0.104776,2.01089 -0.799732,2.47519 -0.266626,0.13792 -0.553407,0.20216 -0.834664,0.20216 z"
     id="path114" />
  <path
     style="stroke-width:1.83773"
     d="m 107.91261,362.44044 c -0.28125,0 -0.56803,-0.0643 -0.83466,-0.20242 -0.90453,-0.46144 -1.26297,-1.57049 -0.80152,-2.47218 0.60491,-1.18399 0.91185,-2.44832 0.91185,-3.75905 0,-1.31074 -0.30694,-2.5752 -0.91185,-3.75904 -0.46145,-0.90454 -0.10481,-2.01091 0.80152,-2.47221 0.89721,-0.46323 2.0109,-0.10658 2.47518,0.79974 0.87333,1.70635 1.31448,3.53361 1.31448,5.43256 0,1.89892 -0.4413,3.72619 -1.31448,5.43256 -0.32545,0.6361 -0.97246,1.00201 -1.63917,1.00201 z"
     id="path116" />
  <path
     style="stroke-width:1.83773"
     d="M 114.48124,408.42085 H 94.252848 c -2.413972,0 -4.677164,-1.18577 -6.052097,-3.17084 L 74.000564,384.73795 c -0.672837,-0.9744 -1.0259,-2.1124 -1.0259,-3.29326 0,-2.20946 1.228037,-4.19498 3.203701,-5.18474 1.561541,-0.77958 3.436588,-0.55894 4.768228,0.56624 l 6.925425,5.82368 c 0.325447,0.28305 0.750021,0.33651 1.106816,0.15806 0.332762,-0.16749 0.540569,-0.50191 0.540569,-0.87513 v -25.91625 c 0,-3.54854 2.885719,-6.43424 6.434271,-6.43424 3.548553,0 6.434276,2.8857 6.434276,6.43424 v 15.19743 c 0,0.43757 0.31261,0.81989 0.74271,0.90633 l 12.90735,2.58117 c 2.7424,0.54608 4.73389,2.97529 4.73389,5.77295 l -0.0349,0.92661 -1.62723,22.73643 c -0.16736,2.39306 -2.18258,4.26959 -4.58161,4.26959 z"
     id="path118" />
  <path
     style="fill:#ffffff;stroke-width:1.83773"
     d="m 78.144774,379.45916 -0.310666,0.0737 c -0.72255,0.36218 -1.171158,1.0883 -1.171158,1.89594 0,0.43203 0.128688,0.84751 0.375009,1.20235 l 14.198694,20.49712 c 0.685675,0.99649 1.818316,1.58842 3.026047,1.58842 h 20.27319 c 0.4798,0 0.88243,-0.37322 0.91736,-0.85302 l 1.62723,-22.75137 0.024,-0.6582 c 0,-1.05156 -0.74644,-1.96312 -1.77801,-2.16912 l -12.90736,-2.5812 c -2.14376,-0.42828 -3.699342,-2.32587 -3.699342,-4.50994 v -15.07802 c 0,-1.51974 -1.237288,-2.75735 -2.757328,-2.75735 -1.52004,0 -2.757333,1.2373 -2.757333,2.75735 v 25.91622 c 0,1.77653 -0.987234,3.37239 -2.573708,4.1666 -1.697393,0.84377 -3.711277,0.58642 -5.13846,-0.65074 l -6.903035,-5.80726 c -0.13055,-0.10856 -0.28857,-0.16544 -0.448606,-0.16544 z"
     id="path120" />
  <path
     style="fill:#e0e000;fill-rule:evenodd;stroke:#000000;stroke-width:0.204541"
     d="m 72.834007,47.589494 -24.57974,0.104473 v 33.005166 h 8.541961 v -4.720381 h 7.822653 V 80.62948 H 77.486075 V 75.909099 H 72.905 v -4.720383 h -3.812204 v -4.650727 h 7.553415 c 0,0 0.139305,-16.194499 0,-16.154314 -0.139166,0.03737 -3.812204,0 -3.812204,0 z M 55.929575,52.366135 H 69.10753 v 9.396559 h -3.709061 v 4.6735 l -8.55,-0.148815 z"
     id="path124" />
  <path
     style="fill:#e0e000;fill-rule:evenodd;stroke:#000000;stroke-width:0.204541"
     d="M 8.5382283,47.589494 V 80.72861 H 16.221574 V 66.543353 H 31.732931 V 61.8578 h -14.73445 v -9.440765 h 19.998667 v -4.824861 z"
     id="path126" />
  <path
     style="fill:#e0e000;fill-rule:evenodd;stroke:#000000;stroke-width:0.204541"
     d="m 97.212823,47.857393 -5.43969,4.502043 H 87.891274 V 76.02832 h 4.055993 v 4.755208 H 112.61568 V 76.02832 h 4.08144 V 52.359436 h -4.04662 v -4.581074 z m -0.579333,4.712344 h 12.37827 V 76.13146 H 96.63349 Z"
     id="path128" />
  <path
     d="m 271.21327,47.589494 -24.57973,0.104473 v 33.005166 h 8.54196 v -4.720381 h 7.82264 v 4.650728 h 12.86719 v -4.720381 h -4.58106 v -4.720383 h -3.81222 v -4.650727 h 7.55341 c 0,0 0.13919,-16.194499 0,-16.154314 -0.13919,0.03737 -3.81219,0 -3.81219,0 z m -16.90444,4.776641 h 13.17797 v 9.396559 h -3.70908 v 4.6735 l -8.54999,-0.148815 z"
     style="fill:#e0e000;fill-rule:evenodd;stroke:#000000;stroke-width:0.204541"
     id="path130" />
  <path
     style="fill:#e0e000;fill-rule:evenodd;stroke:#000000;stroke-width:0.204541"
     d="m 156.15062,47.723443 h -20.81576 v 4.747172 h -3.80819 v 4.69761 h -3.6595 v 14.037911 h 3.60994 v 4.747174 h 3.80819 v 4.895854 h 20.72199 V 61.761355 h -11.17541 v 4.598488 h 6.04916 v 9.74215 H 138.9957 v -4.747171 h -3.46126 V 57.156171 h 4.3681 v -4.69761 h 16.24808 z"
     id="path132" />
  <path
     d="m 195.26388,47.723443 h -20.81576 v 4.747172 h -3.80818 v 4.69761 h -3.65951 v 14.037911 h 3.60995 v 4.747174 h 3.80818 v 4.895854 h 20.72199 V 61.761355 h -11.17541 v 4.598488 h 6.04917 v 9.74215 h -11.88535 v -4.747171 h -3.46125 V 57.156171 h 4.36809 v -4.69761 h 16.24808 z"
     style="fill:#e0e000;fill-rule:evenodd;stroke:#000000;stroke-width:0.204541"
     id="path134" />
  <path
     d="m 235.71664,80.808979 v -4.69761 h -16.42221 v -9.494342 h 12.41176 V 61.770731 H 219.49133 V 52.32595 h 16.07395 v -4.69761 h -23.78944 v 33.085536 z"
     style="fill:#e0e000;fill-rule:evenodd;stroke:#000000;stroke-width:0.204541"
     id="path136" />
  <path
     d="M 8.5382283,47.589494 V 77.969249 H 17.279775 L 16.573995,47.589494 Z"
     style="fill:#e000d9;fill-rule:evenodd;stroke:#000000;stroke-width:0.204541"
     id="path140" />
  <path
     style="fill:#e000d9;fill-rule:evenodd;stroke:#000000;stroke-width:0.204541"
     d="m 72.03031,47.723443 -23.789438,0.104473 v 30.178838 h 6.831426 v -4.720381 h 9.47559 v 4.335946 h 11.294626 v -1.571228 h -3.741211 v -4.720382 h -3.812204 v -4.650726 c 0,0 7.692722,-16.194499 7.553415,-16.154314 -0.139305,0.03737 -3.812204,0 -3.812204,0 z m -16.904432,1.942269 h 13.177955 v 12.230931 h -3.709062 v 4.6735 l -9.468893,-0.148814 z"
     id="path142" />
  <path
     style="fill:#e000d9;fill-rule:evenodd;stroke:#000000;stroke-width:0.204541"
     d="m 91.720892,47.723443 v 4.650729 H 87.839035 V 73.21672 h 4.055991 v 4.755209 H 112.56344 V 73.21672 h 4.79003 V 49.547837 h -4.75521 v -1.745363 z m 4.859688,2.025318 h 12.37827 V 73.310485 H 96.58058 Z"
     id="path144" />
  <path
     style="fill:#e000d9;fill-rule:evenodd;stroke:#000000;stroke-width:0.204541"
     d="m 270.54352,47.723443 -23.78944,0.104473 v 30.178838 h 6.83143 v -4.720381 h 9.47558 v 4.335946 h 11.29463 v -1.571228 h -3.7412 v -4.720382 h -3.81221 v -4.650726 c 0,0 7.69273,-16.194499 7.55341,-16.154314 -0.13919,0.03737 -3.8122,0 -3.8122,0 z m -16.90444,1.942269 h 13.17798 v 12.230931 h -3.70909 v 4.6735 l -9.46889,-0.148814 z"
     id="path146" />
  <path
     style="fill:#e000d9;fill-rule:evenodd;stroke:#000000;stroke-width:0.204541"
     d="m 138.46928,47.723443 h -3.09692 v 4.747172 h -3.80818 v 4.69761 h -3.6595 v 11.208898 h 3.60994 v 4.747172 h 3.80818 v 4.895854 h 20.72199 V 61.77207 h -11.27453 v 1.764117 h 3.7747 v 9.742148 h -9.51176 v -4.747171 h -3.46125 v -11.35758 l 2.90001,-4.697612 z"
     id="path148" />
  <path
     d="m 177.44859,47.723443 h -3.09691 v 4.747172 h -3.80819 v 4.69761 h -3.6595 v 11.208898 h 3.60994 v 4.747172 h 3.80819 v 4.895854 h 20.72199 V 61.77207 h -11.27453 v 1.764117 h 3.7747 v 9.742148 h -9.51176 v -4.747171 h -3.48269 v -11.35758 l 2.90001,-4.697612 z"
     style="fill:#e000d9;fill-rule:evenodd;stroke:#000000;stroke-width:0.204541"
     id="path150" />
  <rect
     style="color:#000000;isolation:auto;mix-blend-mode:normal;solid-color:#000000;fill:#e000d9;stroke:#000000;stroke-width:0.204541;stroke-linejoin:round;color-rendering:auto;image-rendering:auto;shape-rendering:auto"
     height="30.245806"
     width="6.2942886"
     y="47.723442"
     x="211.87361"
     id="rect152" />
  <path
     style="fill:#1dc300;fill-rule:evenodd;stroke:#000000;stroke-width:0.204541"
     d="m 10.681421,44.776554 v 33.219485 h 8.741547 V 63.663438 H 35.295989 V 58.977884 H 19.382783 V 49.53712 h 19.757558 v -4.824861 z"
     id="path156" />
  <path
     style="fill:#1dc300;fill-rule:evenodd;stroke:#000000;stroke-width:0.204541"
     d="m 74.977199,44.910503 -24.57974,0.104473 v 33.005166 h 7.623068 v -4.720381 h 9.475592 v 4.335946 h 11.294624 v -4.405599 h -3.741211 v -4.720383 h -3.812205 v -4.650727 h 7.553416 c 0,0 0.139166,-16.194499 0,-16.154314 -0.139305,0.03737 -3.812205,0 -3.812205,0 z m -16.904431,4.776641 h 13.177954 v 9.396559 h -3.709061 v 4.6735 l -9.468893,-0.148815 z"
     id="path158" />
  <path
     style="fill:#1dc300;fill-rule:evenodd;stroke:#000000;stroke-width:0.204541"
     d="m 93.864084,44.776554 v 4.650728 h -3.881856 v 23.668884 h 4.055991 v 4.755208 h 20.668411 v -4.755208 h 4.79003 V 49.427282 h -4.7552 v -4.581074 z m 4.859689,4.859688 H 111.10205 V 73.197966 H 98.723773 Z"
     id="path160" />
  <path
     style="fill:#1dc300;fill-rule:evenodd;stroke:#000000;stroke-width:0.204541"
     d="m 273.35646,44.910503 -24.57975,0.104473 v 33.005166 h 7.62307 v -4.720381 h 9.47559 v 4.335946 H 277.17 v -4.405599 h -3.7412 v -4.720383 h -3.81222 V 63.858998 H 277.17 c 0,0 0.13918,-16.194499 0,-16.154314 -0.13919,0.03737 -3.8122,0 -3.8122,0 z m -16.90444,4.776641 H 269.63 v 9.396559 h -3.70909 v 4.6735 l -9.46889,-0.148815 z"
     id="path162" />
  <path
     d="m 159.09751,44.910503 h -20.81576 v 4.747171 h -3.80819 v 4.69761 h -3.6595 v 14.037912 h 3.60994 v 4.747173 h 3.80819 v 4.895855 h 20.72199 V 58.948415 h -13.20341 v 4.598488 h 4.99498 v 9.74215 h -8.80182 v -4.747172 h -3.46126 V 54.47718 h 3.6595 v -4.697612 h 16.95802 z"
     style="fill:#1dc300;fill-rule:evenodd;stroke:#000000;stroke-width:0.204541"
     id="path164" />
  <path
     style="fill:#1dc300;fill-rule:evenodd;stroke:#000000;stroke-width:0.204541"
     d="m 198.07682,44.910503 h -20.81576 v 4.747171 h -3.80818 v 4.69761 h -3.6595 v 14.037912 h 3.60994 v 4.747173 h 3.80818 v 4.895855 h 20.722 V 58.948415 h -11.07629 v 4.598488 h 2.86786 v 9.74215 h -8.80183 v -4.747172 h -3.48269 V 54.47718 h 3.65951 v -4.697612 h 16.95801 z"
     id="path166" />
  <path
     style="fill:#1dc300;fill-rule:evenodd;stroke:#000000;stroke-width:0.204541"
     d="m 238.66353,77.996039 v -4.69761 h -17.21251 v -9.494342 h 12.41176 V 58.957791 H 221.64792 V 49.51301 h 16.86426 V 44.8154 h -24.57975 v 33.085535 z"
     id="path168" />
</svg>
